<svg width="258" height="222" viewBox="0 0 258 222" fill="none" xmlns="http://www.w3.org/2000/svg">
<rect x="20" y="2" width="218" height="218" rx="109" fill="#E84115"/>
<path d="M131.407 26.7897L234.719 88.5064L128.904 149.289L25.9053 90.2893L131.407 26.7897Z" fill="white"/>
<path d="M25.9053 90.2893L128.904 149.289L127.905 193.791L24.9059 134.793L25.9053 90.2893Z" fill="white"/>
<path d="M128.904 149.289L234.719 88.5064L233.219 129.506L127.905 193.791L128.904 149.289Z" fill="white"/>
<line x1="26.2445" y1="90.3881" x2="129.358" y2="148.185" stroke="black"/>
<path d="M128.744 148.395L234 87.5" stroke="black"/>
<path d="M234.5 88.0001L131.742 26.2524" stroke="black"/>
<line x1="132.258" y1="26.2523" x2="26.2584" y2="90.2523" stroke="black"/>
<line x1="26.4999" y1="89.8353" x2="25.4999" y2="135.011" stroke="black"/>
<path d="M25 135L128 194" stroke="black"/>
<line x1="233.5" y1="128.988" x2="234.5" y2="86.9881" stroke="black"/>
<path d="M233.5 129L128 194" stroke="black"/>
<line x1="128.5" y1="148.011" x2="127.5" y2="194.187" stroke="black"/>
<path d="M35.1357 129.799L35.895 105.561L40.044 107.841C42.5361 109.211 44.1953 110.345 45.0214 111.244C45.857 112.137 46.4716 113.121 46.8651 114.195C47.2586 115.27 47.4383 116.348 47.4044 117.431C47.3777 118.285 47.229 119.029 46.9584 119.664C46.6881 120.288 46.3011 120.785 45.7974 121.155C45.294 121.513 44.5725 121.72 43.6329 121.776C45.2975 123.475 46.4089 125.049 46.9671 126.5C47.5343 127.955 47.8004 129.245 47.7651 130.37C47.7315 131.442 47.4433 132.343 46.9005 133.072C46.3667 133.806 45.635 134.193 44.7051 134.232C43.7753 134.272 42.3062 133.74 40.2979 132.636L35.1357 129.799ZM38.319 117.997L41.2219 119.593C42.1762 119.662 42.8755 119.57 43.3199 119.316C43.7738 119.057 44.1151 118.684 44.344 118.195C44.5823 117.701 44.7129 117.09 44.7357 116.361C44.7716 115.216 44.5017 114.199 43.9259 113.311C43.3593 112.427 42.2225 111.517 40.5154 110.578L38.5847 109.517L38.319 117.997ZM37.9775 128.898L40.5929 130.336C42.0534 131.139 43.1429 131.34 43.8611 130.941C44.5888 130.536 44.9699 129.781 45.0045 128.678C45.03 127.866 44.8616 127.016 44.4994 126.128C44.1375 125.23 43.5611 124.363 42.7702 123.526C41.9796 122.678 40.7262 121.783 39.01 120.84L38.2432 120.418L37.9775 128.898ZM55.8532 141.186L56.5666 118.416L51.9931 115.902L52.0694 113.466L59.1898 117.379L58.4759 140.165L63.2548 142.791L63.179 145.212L55.8532 141.186ZM74.8713 152.131C72.6804 150.927 70.955 149.094 69.6949 146.633C68.4352 144.161 67.8469 141.598 67.9301 138.943C68.0133 136.288 68.7394 134.453 70.1084 133.436C71.4774 132.42 73.2573 132.514 75.4482 133.718C77.6299 134.917 79.3508 136.748 80.6109 139.209C81.871 141.67 82.4594 144.228 82.3762 146.883C82.293 149.538 81.5668 151.379 80.1975 152.405C78.8285 153.422 77.0531 153.33 74.8713 152.131ZM74.9472 149.71C76.3073 150.458 77.408 150.449 78.2492 149.682C79.0903 148.916 79.544 147.476 79.6102 145.363C79.6761 143.26 79.3263 141.383 78.5608 139.734C77.7954 138.085 76.7325 136.886 75.3724 136.139C74.003 135.386 72.8978 135.393 72.0567 136.159C71.2155 136.925 70.762 138.36 70.6961 140.463C70.6299 142.577 70.9795 144.458 71.745 146.108C72.5105 147.757 73.5779 148.958 74.9472 149.71ZM98.3172 164.017C96.5896 163.734 94.9544 163.169 93.4117 162.321C91.8781 161.478 90.5259 160.327 89.3551 158.869C88.1938 157.404 87.3015 155.802 86.6782 154.061C86.0552 152.31 85.7712 150.555 85.8264 148.795C85.9092 146.151 86.7312 144.368 88.2922 143.447C89.8624 142.53 91.7155 142.659 93.8516 143.833C95.4309 144.701 97.0908 145.958 98.8314 147.603L98.7439 150.398C96.9928 148.493 95.4144 147.155 94.0085 146.382C93.0774 145.87 92.1928 145.654 91.3545 145.733C90.5166 145.802 89.8566 146.271 89.3744 147.139C88.8922 148.007 88.6326 149.03 88.5958 150.206C88.5465 151.778 88.9286 153.513 89.742 155.411C90.5646 157.314 91.8978 158.773 93.7418 159.786C94.2987 160.092 94.8477 160.352 95.3889 160.564C95.9304 160.767 96.9357 160.986 98.4048 161.221L98.3172 164.017ZM102.957 167.075L103.747 141.869L106.294 143.269L105.798 159.105L113.404 155.072L116.8 156.939L109.207 160.979L116.445 174.489L112.939 172.562L105.798 159.105L105.504 168.475L102.957 167.075Z" fill="black"/>
<path d="M110.811 47.7021C111.306 47.3648 112.24 47.2807 113.612 47.4498C115.027 47.6199 116.742 48.0778 118.757 48.8235C120.772 49.5692 123.023 50.6164 125.511 51.9651C128.019 53.3294 130.615 55.022 133.299 57.043C136.606 59.5339 139.081 61.8912 140.722 64.115C142.385 66.3242 143.374 68.3656 143.689 70.2394C144.026 72.1288 143.774 73.8373 142.933 75.3651C142.134 76.8938 140.917 78.2153 139.282 79.3297C138.657 79.7549 137.971 80.1483 137.221 80.5099C136.493 80.8567 135.734 81.1498 134.945 81.389C134.156 81.6283 133.337 81.7985 132.487 81.8998C131.68 82.002 130.907 82.0065 130.168 81.9131C129.887 81.2692 129.53 80.6917 129.098 80.1808C128.687 79.6551 128.273 79.2357 127.857 78.9224C127.42 78.5934 126.981 78.3857 126.538 78.2993C126.096 78.213 125.594 78.3604 125.035 78.7417C126.593 80.0076 127.653 81.2997 128.214 82.6178C128.776 83.936 128.947 85.2222 128.726 86.4763C128.528 87.7158 127.981 88.9091 127.085 90.0562C126.211 91.1886 125.097 92.2167 123.741 93.1405C121.416 94.724 118.979 95.7132 116.429 96.108C113.879 96.5027 111.203 96.371 108.403 95.7129C105.645 95.0558 102.739 93.902 99.6872 92.2517C96.6557 90.617 93.4862 88.5542 90.1786 86.0633C87.8071 84.2774 85.8011 82.705 84.1606 81.3461C82.4986 80.0018 81.1295 78.801 80.0536 77.7438C78.1498 75.8779 77.2586 74.1726 77.3799 72.6278C77.5435 71.084 78.8198 69.4984 81.2086 67.8708L110.811 47.7021ZM115.326 68.9298C115.346 69.0061 115.407 69.0986 115.51 69.2073C115.656 69.317 115.75 69.3875 115.791 69.4188C116.29 69.7948 116.805 69.9511 117.336 69.8878C117.867 69.8246 118.498 69.5436 119.23 69.0451L119.424 68.9131C120.177 68.3999 120.632 67.9555 120.789 67.5799C120.967 67.22 120.817 66.8599 120.339 66.4996C120.235 66.4212 120.099 66.3346 119.932 66.2396C119.765 66.1446 119.618 66.0804 119.492 66.0471C119.34 66.18 119.168 66.3125 118.974 66.4445C118.781 66.5764 118.576 66.7157 118.361 66.8624L115.326 68.9298ZM103.156 77.2217C103.175 77.298 103.237 77.3905 103.34 77.4991C103.486 77.6088 103.579 77.6793 103.621 77.7106C104.12 78.0866 104.603 78.265 105.069 78.2457C105.557 78.2117 106.167 77.9455 106.898 77.4469L107.512 77.029C108.265 76.5158 108.731 76.0641 108.91 75.6738C109.109 75.2992 108.97 74.9318 108.491 74.5715C108.387 74.4931 108.252 74.4065 108.084 74.3115C107.917 74.2165 107.771 74.1523 107.644 74.119C107.493 74.2519 107.32 74.3844 107.127 74.5164C106.933 74.6483 106.729 74.7876 106.513 74.9343L103.156 77.2217ZM139.129 96.4867C140.148 97.2543 141.008 98.0561 141.708 98.892C142.408 99.728 142.885 100.597 143.139 101.498C143.393 102.399 143.402 103.348 143.167 104.343C142.953 105.325 142.442 106.359 141.632 107.448C142.448 107.877 143.168 107.879 143.792 107.453C144.287 107.116 144.734 106.558 145.134 105.778C145.554 105.014 145.735 104.101 145.675 103.037C145.637 101.989 145.241 100.827 144.487 99.5497C143.777 98.2735 142.537 96.9695 140.769 95.6379C139.77 94.886 138.821 94.2945 137.921 93.8635C137.041 93.4481 136.265 93.1263 135.593 92.8979C135.253 92.0857 135.092 91.255 135.112 90.4057C135.154 89.5419 135.354 88.6894 135.713 87.8482C136.092 87.0227 136.62 86.2158 137.295 85.4276C137.991 84.6551 138.812 83.9463 139.759 83.3011C142.406 81.4976 145.228 80.3658 148.224 79.9058C151.221 79.4458 154.195 79.4783 157.147 80.0035C160.141 80.5297 163.031 81.4402 165.816 82.7353C168.602 84.0303 171.118 85.5238 173.364 87.2157C175.382 88.7353 177.084 90.2019 178.469 91.6155C179.854 93.0291 180.976 94.3681 181.836 95.6327C182.716 96.8826 183.366 98.0511 183.785 99.1383C184.246 100.227 184.541 101.205 184.668 102.072C184.209 102.714 183.632 103.36 182.939 104.012C182.246 104.663 181.459 105.289 180.576 105.89C179.995 106.286 179.33 106.665 178.58 107.026C177.873 107.389 177.124 107.705 176.334 107.974C175.545 108.244 174.735 108.452 173.906 108.6C173.076 108.747 172.27 108.804 171.488 108.77C171.392 108.358 171.161 107.814 170.796 107.138C170.452 106.447 169.983 105.707 169.388 104.919C168.835 104.132 168.166 103.32 167.381 102.482C166.596 101.644 165.725 100.865 164.768 100.144C163.458 99.1572 162.446 98.5339 161.732 98.2742C161.039 98.0302 160.488 98.0475 160.079 98.3261C159.864 98.4727 159.712 98.6208 159.624 98.7705C160.148 99.0105 160.681 99.3038 161.223 99.6505C161.765 99.9971 162.265 100.343 162.723 100.687C164.512 102.035 166.033 103.52 167.286 105.143C168.561 106.751 169.336 108.431 169.612 110.182C169.931 111.935 169.634 113.718 168.723 115.532C167.812 117.347 166.087 119.119 163.547 120.849C161.546 122.213 159.236 123.19 156.617 123.78C153.999 124.37 151.201 124.517 148.222 124.218C145.265 123.936 142.191 123.165 139.003 121.906C135.835 120.663 132.691 118.866 129.571 116.516C127.969 115.31 126.536 114.138 125.271 113C123.985 111.877 122.847 110.743 121.858 109.596C120.847 108.465 119.975 107.314 119.24 106.143C118.527 104.958 117.911 103.722 117.391 102.435C117.737 101.214 118.273 100.044 118.998 98.9227C119.724 97.802 120.829 96.7357 122.314 95.724C123.476 94.9322 124.771 94.3484 126.198 93.9725C127.647 93.6124 129.111 93.465 130.592 93.5304C132.094 93.5812 133.58 93.8516 135.051 94.3417C136.521 94.8317 137.881 95.5467 139.129 96.4867Z" fill="black"/>
<path d="M140.238 172.125L140.129 169.159C142.312 169.052 144.278 168.471 146.025 167.415C146.756 166.974 147.45 166.389 148.107 165.663C148.763 164.926 149.25 164.148 149.566 163.329C149.891 162.504 150.041 161.733 150.015 161.015C149.984 160.172 149.719 159.529 149.22 159.085C148.72 158.632 147.803 158.356 146.469 158.258L145.072 158.161L143.661 158.072C141.174 157.861 139.886 156.512 139.795 154.024C139.728 152.202 140.212 150.346 141.245 148.455C142.287 146.549 143.959 144.901 146.259 143.511C147.739 142.617 149.179 142.002 150.579 141.666L150.678 144.368C149.128 144.602 147.631 145.155 146.187 146.028C145.037 146.723 144.118 147.64 143.43 148.779C142.752 149.912 142.431 150.979 142.468 151.978C142.504 152.967 142.806 153.625 143.373 153.952C143.941 154.279 144.659 154.463 145.526 154.503L146.596 154.606L147.927 154.744L149.051 154.831C151.383 155.081 152.595 156.434 152.684 158.891C152.753 160.765 152.228 162.726 151.109 164.774C149.99 166.823 148.142 168.626 145.566 170.183C144.745 170.678 143.958 171.069 143.203 171.355C142.457 171.646 141.469 171.903 140.238 172.125ZM158.485 147.805C159.198 145.885 160.072 144.234 161.106 142.854C162.14 141.474 163.103 140.515 163.994 139.976C165.242 139.222 166.389 139.173 167.433 139.829C168.478 140.485 169.047 142.094 169.14 144.654C169.214 146.674 168.946 148.682 168.335 150.679C167.733 152.66 166.897 154.447 165.825 156.042C164.753 157.626 163.401 158.911 161.77 159.897C161.306 160.177 160.591 160.551 159.624 161.018C159.48 161.083 159.265 161.186 158.979 161.328L159.227 168.104L156.739 169.607L155.854 145.389L158.342 143.886L158.485 147.805ZM158.611 151.256L158.884 158.736C159.795 158.462 160.629 158.096 161.386 157.639C162.893 156.728 164.134 155.276 165.109 153.283C166.093 151.273 166.541 149.071 166.453 146.677C166.39 144.939 166.061 143.802 165.468 143.267C164.874 142.732 164.221 142.68 163.507 143.111C162.732 143.579 161.893 144.555 160.99 146.036C160.096 147.513 159.303 149.253 158.611 151.256ZM182.8 142.928C182.096 144.843 181.222 146.493 180.179 147.879C179.145 149.259 178.183 150.218 177.291 150.757C176.043 151.511 174.897 151.56 173.852 150.904C172.816 150.243 172.252 148.631 172.158 146.071C172.084 144.051 172.349 142.051 172.95 140.07C173.552 138.079 174.389 136.291 175.461 134.707C176.533 133.112 177.884 131.822 179.516 130.836C179.988 130.551 180.703 130.177 181.662 129.715C181.805 129.65 182.02 129.547 182.306 129.405L184.807 127.894L185.257 140.214C185.334 142.317 185.584 143.911 186.006 144.996L183.412 146.564C183.181 145.725 182.977 144.513 182.8 142.928ZM182.674 139.477L182.401 131.997C181.509 132.26 180.683 132.62 179.926 133.078C178.392 134.005 177.138 135.47 176.163 137.474C175.198 139.473 174.758 141.664 174.845 144.048C174.908 145.776 175.233 146.915 175.818 147.466C176.411 148.001 177.065 148.053 177.778 147.622C178.554 147.154 179.393 146.178 180.295 144.697C181.198 143.215 181.991 141.475 182.674 139.477ZM202.129 134.743C200.486 136.406 198.911 137.693 197.404 138.604C195.907 139.509 194.559 139.913 193.362 139.818C192.173 139.706 191.228 139.16 190.527 138.179C189.826 137.188 189.443 135.812 189.379 134.053C189.282 131.409 189.937 128.768 191.345 126.131C192.761 123.487 194.512 121.536 196.598 120.275C198.14 119.343 199.784 118.695 201.53 118.332L201.632 121.127C199.859 121.251 198.287 121.728 196.914 122.558C196.004 123.107 195.158 123.89 194.375 124.906C193.592 125.911 193.002 127.103 192.606 128.48C192.21 129.858 192.033 131.135 192.076 132.312C192.134 133.883 192.607 135.129 193.498 136.049C194.397 136.963 195.747 136.876 197.548 135.788C198.091 135.46 198.625 135.095 199.148 134.694C199.67 134.282 200.63 133.367 202.027 131.948L202.129 134.743ZM218.407 124.237C216.459 126.542 214.598 128.23 212.824 129.302C211.478 130.116 210.26 130.453 209.171 130.313C208.081 130.173 207.189 129.574 206.494 128.515C205.808 127.44 205.435 126.075 205.374 124.42C205.316 122.827 205.563 121.114 206.116 119.28C206.669 117.446 207.474 115.794 208.532 114.325C209.589 112.845 210.787 111.701 212.124 110.893C213.898 109.821 215.347 109.701 216.471 110.533C217.604 111.359 218.227 113.313 218.339 116.394L218.362 117.019L208.065 123.241C208.109 124.448 208.363 125.423 208.828 126.163C209.301 126.899 209.899 127.303 210.622 127.377C211.344 127.452 212.156 127.217 213.056 126.672C214.661 125.703 216.412 124.006 218.31 121.583L218.407 124.237ZM208.133 120.982L215.582 116.481L215.566 116.059C215.514 114.633 215.174 113.679 214.546 113.196C213.918 112.714 213.104 112.775 212.106 113.378C211.098 113.987 210.24 114.947 209.532 116.258C208.832 117.553 208.366 119.128 208.133 120.982Z" fill="black"/>
</svg>
