<svg width="393" height="108" viewBox="0 0 393 108" fill="none" xmlns="http://www.w3.org/2000/svg">
<rect x="9.71506" y="0.97168" width="105.894" height="105.894" rx="52.947" fill="#E84115"/>
<path d="M63.8312 13.0132L114.015 42.9922L62.6154 72.5175L12.5836 43.8583L63.8312 13.0132Z" fill="white"/>
<path d="M12.5836 43.8583L62.6154 72.5175L62.1301 94.1346L12.0981 65.4759L12.5836 43.8583Z" fill="white"/>
<path d="M62.6154 72.5175L114.015 42.9922L113.287 62.9081L62.1301 94.1346L62.6154 72.5175Z" fill="white"/>
<line x1="12.874" y1="43.682" x2="62.9619" y2="71.7568" stroke="black"/>
<path d="M62.5377 72.0835L113.666 42.5036" stroke="black"/>
<path d="M113.909 42.746L63.9938 12.7519" stroke="black"/>
<line x1="64.3778" y1="12.972" x2="12.888" y2="44.0602" stroke="black"/>
<line x1="13.1295" y1="43.6434" x2="12.6437" y2="65.5876" stroke="black"/>
<path d="M12.1438 65.5767L62.1764 94.2361" stroke="black"/>
<line x1="113.166" y1="62.6502" x2="113.652" y2="42.2486" stroke="black"/>
<path d="M113.423 62.6621L62.1763 94.236" stroke="black"/>
<line x1="62.6762" y1="71.9024" x2="62.1905" y2="94.3324" stroke="black"/>
<path d="M20.2518 64.0142L20.5603 54.1675L22.2458 55.0939C23.2582 55.6503 23.9322 56.1111 24.2679 56.4763C24.6073 56.8393 24.857 57.239 25.0168 57.6753C25.1767 58.1117 25.2497 58.5498 25.236 58.9897C25.2251 59.3366 25.1647 59.639 25.0547 59.8969C24.9449 60.1507 24.7877 60.3525 24.5831 60.5025C24.3786 60.6482 24.0855 60.7324 23.7038 60.7549C24.38 61.445 24.8315 62.0847 25.0583 62.674C25.2887 63.2653 25.3968 63.7894 25.3825 64.2462C25.3688 64.6819 25.2517 65.0478 25.0312 65.3439C24.8144 65.6421 24.5171 65.7992 24.1394 65.8153C23.7616 65.8314 23.1648 65.6153 22.3489 65.1669L20.2518 64.0142ZM21.545 59.2199L22.7243 59.8681C23.112 59.8962 23.3961 59.8587 23.5766 59.7557C23.761 59.6505 23.8997 59.4987 23.9927 59.3003C24.0895 59.0996 24.1425 58.8513 24.1518 58.5552C24.1664 58.0899 24.0567 57.6768 23.8228 57.3159C23.5926 56.9571 23.1308 56.5871 22.4373 56.2059L21.6529 55.7748L21.545 59.2199ZM21.4063 63.6484L22.4688 64.2324C23.0621 64.5585 23.5047 64.6404 23.7965 64.4781C24.0921 64.3136 24.2469 64.0072 24.261 63.5588C24.2713 63.2289 24.2029 62.8837 24.0558 62.5231C23.9088 62.1584 23.6746 61.8059 23.3533 61.4658C23.0321 61.1215 22.5229 60.7577 21.8257 60.3745L21.5142 60.2033L21.4063 63.6484ZM28.6683 68.6401L28.9581 59.3898L27.1001 58.3686L27.1311 57.3789L30.0238 58.9687L29.7338 68.2254L31.6752 69.2925L31.6444 70.2759L28.6683 68.6401ZM36.3944 73.0867C35.5043 72.5975 34.8034 71.853 34.2915 70.8531C33.7797 69.849 33.5407 68.8077 33.5745 67.7291C33.6083 66.6505 33.9033 65.9048 34.4594 65.492C35.0156 65.0791 35.7387 65.1173 36.6287 65.6065C37.5151 66.0936 38.2142 66.8372 38.7261 67.837C39.238 68.8369 39.477 69.8761 39.4432 70.9547C39.4095 72.0333 39.1144 72.7811 38.5581 73.1982C38.002 73.611 37.2807 73.5739 36.3944 73.0867ZM36.4252 72.1033C36.9778 72.407 37.4249 72.4032 37.7666 72.092C38.1084 71.7807 38.2927 71.1957 38.3196 70.3371C38.3463 69.4827 38.2042 68.7205 37.8932 68.0505C37.5823 67.3805 37.1505 66.8936 36.5979 66.5899C36.0416 66.2841 35.5926 66.2869 35.2509 66.5982C34.9092 66.9095 34.725 67.4923 34.6982 68.3467C34.6713 69.2053 34.8133 69.9696 35.1243 70.6397C35.4353 71.3097 35.8689 71.7976 36.4252 72.1033ZM45.9193 77.9153C45.2174 77.8006 44.5531 77.571 43.9264 77.2265C43.3034 76.8841 42.754 76.4165 42.2784 75.8238C41.8067 75.2289 41.4442 74.5779 41.1909 73.8708C40.9378 73.1594 40.8225 72.4464 40.8449 71.7315C40.8785 70.6572 41.2124 69.9329 41.8466 69.5586C42.4845 69.1864 43.2373 69.2388 44.1051 69.7157C44.7467 70.0684 45.4211 70.5788 46.1282 71.2472L46.0926 72.3828C45.3812 71.6089 44.74 71.065 44.1689 70.7511C43.7906 70.5432 43.4312 70.4554 43.0907 70.4876C42.7503 70.5157 42.4821 70.7061 42.2863 71.0588C42.0904 71.4115 41.9849 71.8268 41.9699 72.3047C41.9499 72.9434 42.1052 73.6483 42.4356 74.4194C42.7698 75.1925 43.3114 75.7849 44.0605 76.1966C44.2867 76.321 44.5098 76.4264 44.7296 76.5128C44.9496 76.595 45.358 76.6839 45.9549 76.7796L45.9193 77.9153ZM47.8043 79.1578L48.1251 68.9177L49.1598 69.4864L48.9582 75.9198L52.0482 74.2815L53.4278 75.0398L50.3433 76.6811L53.2836 82.1694L51.8595 81.3867L48.9582 75.9198L48.8389 79.7265L47.8043 79.1578Z" fill="black"/>
<path d="M53.9676 24.3132C54.1965 24.1573 54.6283 24.1184 55.263 24.1966C55.9173 24.2752 56.7104 24.487 57.6423 24.8319C58.5743 25.1768 59.6155 25.6611 60.7661 26.2849C61.9263 26.9159 63.1269 27.6987 64.3681 28.6334C65.8978 29.7854 67.0423 30.8757 67.8013 31.9042C68.5703 32.926 69.0278 33.8701 69.1737 34.7367C69.3293 35.6106 69.2126 36.4008 68.8237 37.1074C68.4544 37.8144 67.8916 38.4256 67.1351 38.941C66.8464 39.1377 66.5287 39.3196 66.182 39.4868C65.8453 39.6473 65.4944 39.7828 65.1294 39.8935C64.7645 40.0041 64.3856 40.0828 63.9928 40.1297C63.6195 40.177 63.262 40.179 62.9203 40.1358C62.7903 39.838 62.6252 39.571 62.4252 39.3346C62.2351 39.0915 62.0438 38.8975 61.8514 38.7526C61.6493 38.6005 61.446 38.5044 61.2413 38.4645C61.0366 38.4245 60.8048 38.4927 60.546 38.669C61.2666 39.2545 61.7568 39.8521 62.0165 40.4618C62.2763 41.0714 62.3552 41.6663 62.2533 42.2463C62.1614 42.8196 61.9084 43.3715 61.4943 43.902C61.0902 44.4258 60.5746 44.9013 59.9475 45.3285C58.8725 46.0609 57.7453 46.5184 56.5658 46.701C55.3863 46.8835 54.149 46.8226 52.8537 46.5182C51.578 46.2143 50.2344 45.6807 48.8227 44.9174C47.4207 44.1614 45.9547 43.2074 44.425 42.0553C43.3282 41.2293 42.4004 40.5021 41.6417 39.8736C40.873 39.2519 40.2398 38.6965 39.7422 38.2075C38.8617 37.3446 38.4495 36.5558 38.5056 35.8414C38.5813 35.1274 39.1715 34.394 40.2764 33.6413L53.9676 24.3132ZM56.0558 34.1311C56.0648 34.1664 56.0931 34.2091 56.1409 34.2594C56.2082 34.3101 56.2515 34.3427 56.2708 34.3572C56.5017 34.5311 56.7399 34.6034 56.9854 34.5742C57.2309 34.5449 57.5229 34.415 57.8613 34.1844L57.9509 34.1234C58.2993 33.886 58.5098 33.6805 58.5825 33.5068C58.6648 33.3403 58.5953 33.1737 58.374 33.0071C58.3259 32.9709 58.2632 32.9308 58.1859 32.8868C58.1086 32.8429 58.0407 32.8132 57.9823 32.7978C57.9123 32.8593 57.8325 32.9206 57.7429 32.9816C57.6534 33.0426 57.5588 33.1071 57.4593 33.1749L56.0558 34.1311ZM50.427 37.966C50.436 38.0013 50.4643 38.0441 50.5121 38.0944C50.5795 38.1451 50.6228 38.1777 50.642 38.1922C50.8729 38.3661 51.0962 38.4486 51.3119 38.4396C51.5375 38.4239 51.8195 38.3008 52.1579 38.0702L52.4416 37.877C52.79 37.6396 53.0055 37.4307 53.0881 37.2502C53.1803 37.0769 53.1158 36.907 52.8945 36.7403C52.8464 36.7041 52.7837 36.664 52.7064 36.6201C52.6291 36.5761 52.5612 36.5465 52.5029 36.531C52.4329 36.5925 52.3531 36.6538 52.2635 36.7148C52.1739 36.7759 52.0793 36.8403 51.9798 36.9081L50.427 37.966ZM67.0645 46.8761C67.5359 47.2312 67.9336 47.602 68.2574 47.9886C68.5812 48.3752 68.8018 48.7769 68.9192 49.1937C69.0366 49.6106 69.0409 50.0493 68.9321 50.5098C68.8332 50.9636 68.5966 51.4422 68.2223 51.9456C68.5995 52.144 68.9325 52.1449 69.2211 51.9483C69.4501 51.7923 69.6569 51.534 69.8418 51.1735C70.0362 50.8202 70.1197 50.3976 70.0922 49.9058C70.0743 49.4211 69.8911 48.8835 69.5428 48.2927C69.2141 47.7025 68.6408 47.0994 67.823 46.4836C67.3612 46.1358 66.9221 45.8622 66.5057 45.6629C66.0989 45.4708 65.7401 45.3219 65.4293 45.2163C65.2717 44.8407 65.1976 44.4564 65.2069 44.0637C65.2261 43.6641 65.3187 43.2699 65.4846 42.8808C65.6602 42.499 65.904 42.1258 66.2162 41.7613C66.5381 41.404 66.918 41.0762 67.356 40.7778C68.5802 39.9437 69.8853 39.4202 71.2712 39.2075C72.657 38.9947 74.0325 39.0098 75.3978 39.2526C76.7826 39.496 78.1192 39.9171 79.4074 40.5161C80.6957 41.115 81.8593 41.8058 82.8984 42.5883C83.8317 43.2911 84.6186 43.9694 85.2592 44.6232C85.8999 45.277 86.4189 45.8963 86.8164 46.4811C87.2237 47.0592 87.5243 47.5997 87.718 48.1025C87.9313 48.6058 88.0675 49.0581 88.1266 49.4595C87.9139 49.7562 87.6473 50.0552 87.3268 50.3564C87.0062 50.6575 86.6419 50.9471 86.2338 51.2252C85.9651 51.4083 85.6574 51.5835 85.3107 51.7507C84.9835 51.9184 84.6373 52.0645 84.272 52.1892C83.9067 52.3139 83.5323 52.4103 83.1488 52.4784C82.7652 52.5465 82.3925 52.5727 82.0305 52.5571C81.9861 52.3666 81.8794 52.115 81.7105 51.8022C81.5516 51.4826 81.3345 51.1406 81.0591 50.7762C80.8034 50.4123 80.494 50.0365 80.1311 49.649C79.7681 49.2614 79.3654 48.901 78.9228 48.5677C78.3167 48.1112 77.8485 47.823 77.5184 47.7028C77.1979 47.59 76.9431 47.598 76.754 47.7268C76.6545 47.7946 76.5843 47.8632 76.5435 47.9324C76.7857 48.0434 77.0322 48.179 77.283 48.3394C77.5338 48.4997 77.765 48.6596 77.9767 48.819C78.8041 49.4421 79.5076 50.1289 80.0872 50.8795C80.6767 51.6233 81.0353 52.4002 81.163 53.2102C81.3103 54.0207 81.1732 54.8456 80.7518 55.6847C80.3304 56.5238 79.5325 57.3435 78.358 58.1437C77.4323 58.7744 76.3639 59.2263 75.1529 59.4993C73.9419 59.7724 72.6477 59.8399 71.2701 59.702C69.9022 59.5714 68.4809 59.2149 67.0062 58.6325C65.5411 58.0575 64.087 57.2265 62.6438 56.1397C61.903 55.5818 61.2401 55.0398 60.6552 54.5136C60.0604 53.9943 59.5342 53.4695 59.0767 52.9394C58.6092 52.416 58.2057 51.8836 57.8659 51.3423C57.5362 50.7941 57.2511 50.2224 57.0105 49.6273C57.1708 49.0626 57.4187 48.5212 57.7541 48.0028C58.0896 47.4844 58.6007 46.9913 59.2875 46.5234C59.825 46.1572 60.4239 45.8871 61.0841 45.7133C61.754 45.5467 62.4313 45.4786 63.1161 45.5089C63.8108 45.5323 64.4983 45.6574 65.1784 45.8841C65.8585 46.1107 66.4872 46.4414 67.0645 46.8761Z" fill="black"/>
<path d="M71.1944 80.9473L71.1504 79.742C72.0373 79.6989 72.8356 79.4628 73.5455 79.0339C73.8425 78.8544 74.1244 78.6171 74.3913 78.3218C74.658 78.0223 74.8556 77.7063 74.9841 77.3736C75.1163 77.0387 75.177 76.7254 75.1663 76.4336C75.1538 76.0911 75.0462 75.8298 74.8434 75.6498C74.6405 75.4655 74.268 75.3534 73.7261 75.3135L73.1583 75.274L72.585 75.2379C71.575 75.1523 71.0515 74.6042 71.0146 73.5935C70.9875 72.8534 71.1839 72.0993 71.6038 71.3313C72.0271 70.5568 72.706 69.8872 73.6405 69.3226C74.2417 68.9593 74.8267 68.7095 75.3956 68.5733L75.4357 69.6707C74.8061 69.7658 74.198 69.9907 73.6112 70.3452C73.144 70.6275 72.7708 71 72.4915 71.4627C72.2159 71.9231 72.0855 72.3564 72.1003 72.7623C72.115 73.1641 72.2377 73.4314 72.4683 73.5644C72.699 73.6973 72.9905 73.7718 73.3428 73.7881L73.7774 73.8302L74.3181 73.886L74.7747 73.9213C75.7224 74.0229 76.2145 74.5728 76.2509 75.5708C76.2787 76.332 76.0654 77.1287 75.6108 77.961C75.1563 78.7932 74.4057 79.5255 73.3589 80.158C73.0257 80.3594 72.7058 80.5181 72.399 80.6343C72.0961 80.7525 71.6946 80.8568 71.1944 80.9473ZM78.6074 71.0673C78.8972 70.287 79.2521 69.6165 79.6722 69.0558C80.0922 68.4951 80.4833 68.1054 80.8455 67.8865C81.3526 67.5801 81.8183 67.5602 82.2426 67.8268C82.667 68.0934 82.8982 68.7468 82.9362 69.7872C82.9662 70.6076 82.8571 71.4234 82.6091 72.2345C82.3646 73.0393 82.0247 73.7655 81.5893 74.4133C81.1538 75.0568 80.6046 75.5788 79.9418 75.9793C79.7535 76.0931 79.4629 76.245 79.07 76.4348C79.0117 76.4614 78.9244 76.5033 78.8081 76.5607L78.9087 79.3137L77.8981 79.9243L77.5387 70.0857L78.5492 69.4751L78.6074 71.0673ZM78.6586 72.4692L78.7696 75.5077C79.1394 75.3966 79.4783 75.248 79.7861 75.062C80.3982 74.6921 80.9023 74.1022 81.2985 73.2923C81.6981 72.476 81.8801 71.5815 81.8445 70.6089C81.8187 69.9026 81.6853 69.4408 81.4441 69.2235C81.2029 69.0061 80.9375 68.985 80.6477 69.1601C80.3326 69.3505 79.9917 69.7467 79.625 70.3486C79.2619 70.9484 78.9398 71.6552 78.6586 72.4692ZM88.4856 69.0857C88.1993 69.8638 87.8444 70.5342 87.4207 71.0971C87.0007 71.6578 86.6096 72.0476 86.2474 72.2664C85.7403 72.5728 85.2746 72.5927 84.8503 72.3261C84.4295 72.0574 84.2002 71.4028 84.1622 70.3625C84.1322 69.5421 84.2395 68.7295 84.484 67.9248C84.7284 67.1158 85.0683 66.3895 85.5039 65.746C85.9392 65.0982 86.4883 64.5741 87.1511 64.1736C87.3431 64.0576 87.6337 63.9058 88.0229 63.7181C88.0812 63.6916 88.1685 63.6496 88.2849 63.5923L89.3008 62.9784L89.4837 67.9834C89.5149 68.8376 89.6163 69.4852 89.7879 69.9261L88.7339 70.563C88.64 70.2221 88.5572 69.7296 88.4856 69.0857ZM88.4343 67.6838L88.3233 64.6453C87.9607 64.752 87.6255 64.8984 87.3177 65.0844C86.6947 65.4608 86.1852 66.0561 85.7893 66.8702C85.3969 67.6822 85.2184 68.5724 85.2538 69.5408C85.2795 70.2428 85.4111 70.7057 85.6488 70.9295C85.89 71.1468 86.1554 71.1679 86.4452 70.9929C86.7603 70.8025 87.1012 70.4063 87.4679 69.8043C87.8346 69.2024 88.1568 68.4955 88.4343 67.6838ZM96.3379 65.7608C95.6703 66.4365 95.0305 66.9592 94.4184 67.3291C93.8099 67.6968 93.2625 67.8611 92.7761 67.8222C92.2932 67.7769 91.9094 67.555 91.6246 67.1565C91.3397 66.7538 91.1841 66.1951 91.158 65.4804C91.1188 64.4063 91.385 63.3334 91.9566 62.2618C92.5319 61.1881 93.2433 60.3951 94.0908 59.883C94.7174 59.5044 95.3852 59.2413 96.0943 59.0938L96.1358 60.2293C95.4158 60.2797 94.7769 60.4734 94.2191 60.8104C93.8497 61.0337 93.5059 61.3516 93.1878 61.7643C92.8696 62.1727 92.63 62.6568 92.469 63.2165C92.3081 63.7762 92.2364 64.295 92.2538 64.7729C92.2772 65.4115 92.4696 65.9176 92.8313 66.2912C93.1965 66.6627 93.7449 66.6274 94.4766 66.1853C94.6975 66.0518 94.9142 65.9035 95.1267 65.7406C95.339 65.5734 95.7289 65.2016 96.2964 64.6253L96.3379 65.7608ZM102.951 61.4926C102.16 62.4289 101.403 63.1148 100.683 63.5504C100.136 63.8808 99.6411 64.0177 99.1985 63.961C98.7559 63.9042 98.3935 63.6607 98.1112 63.2305C97.8324 62.7938 97.6807 62.2393 97.6562 61.5669C97.6325 60.9199 97.733 60.2238 97.9575 59.4787C98.182 58.7336 98.5091 58.0626 98.9389 57.4657C99.3686 56.8647 99.8551 56.4 100.398 56.0717C101.119 55.6362 101.708 55.5873 102.164 55.9252C102.625 56.2609 102.878 57.0547 102.923 58.3064L102.933 58.5602L98.7492 61.0879C98.7671 61.5785 98.8705 61.9742 99.0591 62.2752C99.2514 62.5739 99.4944 62.7383 99.7879 62.7684C100.081 62.7985 100.411 62.703 100.777 62.482C101.429 62.0881 102.14 61.3988 102.911 60.4142L102.951 61.4926ZM98.7768 60.1701L101.803 58.3416L101.797 58.1703C101.775 57.5909 101.637 57.2033 101.382 57.0074C101.127 56.8115 100.796 56.8361 100.391 57.0812C99.9816 57.3285 99.633 57.7185 99.3452 58.2511C99.0609 58.7773 98.8714 59.417 98.7768 60.1701Z" fill="black"/>
<path d="M134.161 68V38.75H147.171C148.948 38.75 150.471 39.3898 151.741 40.6695C153.021 41.9492 153.661 43.4727 153.661 45.2398V46.8852C153.661 48.7844 153.117 50.2773 152.03 51.3641C150.954 52.4508 149.334 53.1211 147.171 53.375C149.334 53.375 150.954 54.0301 152.03 55.3402C153.117 56.6402 153.661 58.1484 153.661 59.8648V61.5102C153.661 63.2672 153.016 64.7906 151.726 66.0805C150.446 67.3602 148.928 68 147.171 68H134.161ZM140.65 51.7602H143.911C144.794 51.7602 145.556 51.4402 146.196 50.8004C146.846 50.1504 147.171 49.3836 147.171 48.5V45.2398C147.171 44.3562 146.846 43.5996 146.196 42.9699C145.556 42.3301 144.794 42.0102 143.911 42.0102H140.65V51.7602ZM140.65 64.7398H143.911C144.794 64.7398 145.556 64.4199 146.196 63.7801C146.846 63.1402 147.171 62.3836 147.171 61.5102V58.25C147.171 56.0766 146.084 54.9898 143.911 54.9898H140.65V64.7398ZM160.135 68V38.75H166.625V68H160.135ZM179.65 45.2398H186.171C187.948 45.2398 189.471 45.8848 190.741 47.1746C192.021 48.4543 192.661 49.9828 192.661 51.7602V61.5102C192.661 63.2672 192.021 64.7906 190.741 66.0805C189.471 67.3602 187.948 68 186.171 68H179.65C177.873 68 176.345 67.3652 175.065 66.0957C173.795 64.816 173.161 63.2875 173.161 61.5102V51.7602C173.161 49.9625 173.8 48.4289 175.08 47.1594C176.36 45.8797 177.883 45.2398 179.65 45.2398ZM179.65 51.7602V61.5102C179.65 62.3836 179.965 63.1402 180.595 63.7801C181.235 64.4199 182.007 64.7398 182.911 64.7398C183.814 64.7398 184.581 64.4199 185.211 63.7801C185.851 63.1402 186.171 62.3836 186.171 61.5102V51.7602C186.171 50.8664 185.846 50.0996 185.196 49.4598C184.556 48.8199 183.794 48.5 182.911 48.5C182.017 48.5 181.25 48.8199 180.61 49.4598C179.97 50.0996 179.65 50.8664 179.65 51.7602ZM215.375 51.7602H212.145C211.891 49.5867 210.805 48.5 208.885 48.5C207.991 48.5 207.225 48.8199 206.585 49.4598C205.945 50.0996 205.625 50.8664 205.625 51.7602V61.5102C205.625 62.3836 205.94 63.1402 206.57 63.7801C207.209 64.4199 207.981 64.7398 208.885 64.7398C210.805 64.7398 211.891 63.6633 212.145 61.5102H215.375C215.111 65.8367 212.948 68 208.885 68H205.625C203.848 68 202.319 67.3652 201.039 66.0957C199.77 64.816 199.135 63.2875 199.135 61.5102V51.7602C199.135 49.9625 199.775 48.4289 201.055 47.1594C202.334 45.8797 203.858 45.2398 205.625 45.2398H208.885C212.968 45.2398 215.131 47.4133 215.375 51.7602ZM221.911 68V38.75H228.4V53.375L238.15 45.2398H244.671L231.051 56.6352L244.671 68H238.15L228.4 59.8648V68H221.911ZM264.125 51.7602H260.895C260.611 49.5867 259.585 48.5 257.818 48.5C256.67 48.5 255.807 48.7285 255.228 49.1855C254.649 49.6324 254.36 50.3027 254.36 51.1965C254.36 52.1309 255.939 53.441 259.098 55.127C261.667 56.5082 263.145 57.6559 263.531 58.5699C263.927 59.4738 264.125 60.4387 264.125 61.4645C264.125 63.2723 263.485 64.816 262.205 66.0957C260.936 67.3652 259.413 68 257.635 68H254.375C250.048 68 247.885 65.8367 247.885 61.5102H251.145C251.399 63.6734 252.415 64.7551 254.192 64.7551C255.34 64.7551 256.203 64.5266 256.782 64.0695C257.361 63.6125 257.65 62.9371 257.65 62.0434C257.65 61.1293 256.076 59.8191 252.928 58.1129C250.348 56.7418 248.86 55.5992 248.464 54.6852C248.078 53.7711 247.885 52.8062 247.885 51.7906C247.885 49.9727 248.525 48.4289 249.805 47.1594C251.084 45.8797 252.608 45.2398 254.375 45.2398H257.635C261.698 45.2398 263.861 47.4133 264.125 51.7602ZM270.661 45.2398H277.15V48.5C277.15 47.4031 277.425 46.5855 277.973 46.0473C278.521 45.509 279.334 45.2398 280.411 45.2398H283.671C285.448 45.2398 286.971 45.8848 288.241 47.1746C289.521 48.4543 290.161 49.9828 290.161 51.7602V61.5102C290.161 63.2875 289.521 64.816 288.241 66.0957C286.971 67.3652 285.448 68 283.671 68H277.15V74.4898H270.661V45.2398ZM277.15 64.7398H280.411C281.294 64.7398 282.056 64.425 282.696 63.7953C283.346 63.1555 283.671 62.3937 283.671 61.5102V51.7602C283.671 50.8664 283.346 50.1047 282.696 49.475C282.056 48.8352 281.294 48.5152 280.411 48.5152C279.517 48.5051 278.75 48.8199 278.11 49.4598C277.47 50.0996 277.15 50.8664 277.15 51.7602V64.7398ZM309.645 54.9898V51.7602C309.645 50.8664 309.32 50.0996 308.67 49.4598C308.03 48.8199 307.269 48.5 306.385 48.5H303.125C301.205 48.5 300.129 49.5867 299.895 51.7602H296.635C297.133 47.4133 299.296 45.2398 303.125 45.2398H309.645C311.423 45.2398 312.946 45.8848 314.216 47.1746C315.495 48.4543 316.135 49.9828 316.135 51.7602V68H309.645V64.7398C309.391 66.9133 308.305 68 306.385 68H303.125C301.348 68 299.819 67.3652 298.539 66.0957C297.27 64.816 296.635 63.2875 296.635 61.5102V61.4797C296.635 59.7023 297.275 58.1789 298.555 56.9094C299.834 55.6297 301.358 54.9898 303.125 54.9898H309.645ZM309.645 58.25H306.385C305.491 58.25 304.725 58.5699 304.085 59.2098C303.445 59.8395 303.125 60.5961 303.125 61.4797V61.5102C303.125 62.3836 303.44 63.1402 304.07 63.7801C304.709 64.4199 305.481 64.7398 306.385 64.7398C307.289 64.7398 308.056 64.4199 308.686 63.7801C309.325 63.1402 309.645 62.3836 309.645 61.5102V58.25ZM338.85 51.7602H335.62C335.366 49.5867 334.279 48.5 332.36 48.5C331.466 48.5 330.699 48.8199 330.059 49.4598C329.42 50.0996 329.1 50.8664 329.1 51.7602V61.5102C329.1 62.3836 329.414 63.1402 330.044 63.7801C330.684 64.4199 331.456 64.7398 332.36 64.7398C334.279 64.7398 335.366 63.6633 335.62 61.5102H338.85C338.586 65.8367 336.422 68 332.36 68H329.1C327.322 68 325.794 67.3652 324.514 66.0957C323.245 64.816 322.61 63.2875 322.61 61.5102V51.7602C322.61 49.9625 323.25 48.4289 324.529 47.1594C325.809 45.8797 327.332 45.2398 329.1 45.2398H332.36C336.443 45.2398 338.606 47.4133 338.85 51.7602ZM364.885 58.25H351.875V61.5102C351.875 62.3836 352.19 63.1402 352.82 63.7801C353.459 64.4199 354.231 64.7398 355.135 64.7398H358.395C360.548 64.7398 361.625 63.6633 361.625 61.5102H364.885C364.377 65.8367 362.214 68 358.395 68H351.875C350.098 68 348.569 67.3652 347.289 66.0957C346.02 64.816 345.385 63.2875 345.385 61.5102V51.7602C345.385 49.9625 346.025 48.4289 347.305 47.1594C348.584 45.8797 350.108 45.2398 351.875 45.2398H358.395C360.173 45.2398 361.696 45.8848 362.966 47.1746C364.245 48.4543 364.885 49.9828 364.885 51.7602V58.25ZM351.875 54.9898H358.395V51.7602C358.395 50.8664 358.07 50.0996 357.42 49.4598C356.78 48.8199 356.019 48.5 355.135 48.5C354.241 48.5 353.475 48.8199 352.835 49.4598C352.195 50.0996 351.875 50.8664 351.875 51.7602V54.9898Z" fill="white"/>
</svg>
