<svg width="393" height="106" viewBox="0 0 393 106" fill="none" xmlns="http://www.w3.org/2000/svg">
<rect x="9.54956" width="104.09" height="104.09" rx="52.0452" fill="#E84115"/>
<path d="M62.7439 12.7915L112.073 42.2599L61.5489 71.2823L12.3692 43.1112L62.7439 12.7915Z" fill="black"/>
<path d="M12.3692 43.1112L61.5489 71.2823L61.0718 92.5312L11.892 64.3606L12.3692 43.1112Z" fill="black"/>
<path d="M61.5489 71.2823L112.073 42.2599L111.357 61.8365L61.0718 92.5312L61.5489 71.2823Z" fill="black"/>
<line x1="12.659" y1="42.9305" x2="61.8936" y2="70.5272" stroke="white"/>
<path d="M61.4725 70.855L111.73 41.7789" stroke="white"/>
<path d="M111.969 42.0184L62.9038 12.5352" stroke="white"/>
<line x1="63.2857" y1="12.7586" x2="12.673" y2="43.3172" stroke="#FDFDFD"/>
<line x1="12.9144" y1="42.9002" x2="12.4369" y2="64.4707" stroke="white"/>
<path d="M11.937 64.4595L61.1173 92.6307" stroke="white"/>
<line x1="111.23" y1="61.5828" x2="111.708" y2="41.5287" stroke="white"/>
<path d="M111.491 61.5947L61.1173 92.6308" stroke="white"/>
<line x1="61.6172" y1="70.6778" x2="61.1397" y2="92.7258" stroke="white"/>
<path d="M20.1787 63.7069L20.4872 53.8601L22.1727 54.7866C23.1851 55.343 23.8592 55.8038 24.1948 56.169C24.5342 56.532 24.7839 56.9317 24.9437 57.368C25.1036 57.8044 25.1766 58.2425 25.1629 58.6824C25.152 59.0292 25.0916 59.3316 24.9817 59.5896C24.8719 59.8433 24.7146 60.0452 24.51 60.1952C24.3055 60.3409 24.0124 60.4251 23.6307 60.4476C24.3069 61.1377 24.7584 61.7774 24.9852 62.3667C25.2156 62.958 25.3237 63.4821 25.3094 63.9389C25.2958 64.3745 25.1787 64.7404 24.9581 65.0366C24.7413 65.3348 24.444 65.4919 24.0663 65.508C23.6885 65.5241 23.0917 65.308 22.2759 64.8595L20.1787 63.7069ZM21.4719 58.9126L22.6512 59.5608C23.0389 59.5888 23.323 59.5514 23.5035 59.4484C23.6879 59.3432 23.8266 59.1914 23.9196 58.9929C24.0164 58.7923 24.0694 58.5439 24.0787 58.2479C24.0933 57.7826 23.9836 57.3695 23.7497 57.0086C23.5195 56.6498 23.0577 56.2798 22.3642 55.8986L21.5799 55.4675L21.4719 58.9126ZM21.3332 63.3411L22.3957 63.9251C22.989 64.2512 23.4316 64.3331 23.7234 64.1708C24.019 64.0063 24.1739 63.6998 24.1879 63.2515C24.1982 62.9216 24.1298 62.5763 23.9827 62.2158C23.8357 61.851 23.6015 61.4986 23.2802 61.1585C22.959 60.8142 22.4498 60.4504 21.7526 60.0672L21.4411 59.896L21.3332 63.3411ZM28.5952 68.3328L28.885 59.0825L27.027 58.0613L27.058 57.0715L29.9507 58.6614L29.6607 67.9181L31.6021 68.9852L31.5713 69.9686L28.5952 68.3328ZM36.3213 72.7794C35.4312 72.2902 34.7303 71.5457 34.2184 70.5458C33.7066 69.5417 33.4676 68.5003 33.5014 67.4218C33.5352 66.3432 33.8302 65.5975 34.3863 65.1846C34.9425 64.7718 35.6656 64.81 36.5556 65.2992C37.442 65.7863 38.1411 66.5298 38.653 67.5297C39.1649 68.5296 39.404 69.5688 39.3702 70.6474C39.3364 71.726 39.0413 72.4738 38.485 72.8909C37.9289 73.3037 37.2076 73.2665 36.3213 72.7794ZM36.3521 71.796C36.9047 72.0997 37.3518 72.0959 37.6935 71.7846C38.0353 71.4734 38.2196 70.8884 38.2465 70.0298C38.2732 69.1754 38.1311 68.4132 37.8202 67.7432C37.5092 67.0731 37.0774 66.5863 36.5248 66.2826C35.9686 65.9768 35.5196 65.9796 35.1778 66.2909C34.8361 66.6021 34.6519 67.185 34.6251 68.0394C34.5982 68.898 34.7402 69.6623 35.0512 70.3323C35.3622 71.0024 35.7958 71.4902 36.3521 71.796ZM45.8462 77.608C45.1443 77.4933 44.4801 77.2637 43.8533 76.9192C43.2303 76.5768 42.681 76.1092 42.2053 75.5165C41.7336 74.9216 41.3711 74.2706 41.1178 73.5635C40.8647 72.8521 40.7494 72.139 40.7718 71.4242C40.8054 70.3499 41.1394 69.6256 41.7735 69.2513C42.4114 68.8791 43.1642 68.9314 44.032 69.4084C44.6736 69.761 45.348 70.2715 46.0551 70.9398L46.0195 72.0755C45.3081 71.3016 44.6669 70.7577 44.0958 70.4438C43.7175 70.2359 43.3581 70.1481 43.0176 70.1803C42.6772 70.2084 42.4091 70.3987 42.2132 70.7514C42.0173 71.1041 41.9118 71.5195 41.8969 71.9974C41.8768 72.6361 42.0321 73.341 42.3625 74.112C42.6967 74.8852 43.2383 75.4776 43.9874 75.8893C44.2136 76.0137 44.4367 76.119 44.6566 76.2055C44.8765 76.2877 45.285 76.3766 45.8818 76.4723L45.8462 77.608ZM47.7312 78.8505L48.052 68.6104L49.0867 69.1791L48.8851 75.6125L51.9751 73.9742L53.3547 74.7325L50.2702 76.3738L53.2105 81.8621L51.7864 81.0794L48.8851 75.6125L48.7659 79.4192L47.7312 78.8505Z" fill="white"/>
<path d="M51.7002 23.2698C51.9291 23.1139 52.3609 23.075 52.9956 23.1532C53.6499 23.2318 54.443 23.4436 55.3749 23.7885C56.3069 24.1334 57.3481 24.6177 58.4987 25.2415C59.6589 25.8725 60.8595 26.6553 62.1007 27.59C63.6304 28.742 64.7749 29.8323 65.5339 30.8608C66.3029 31.8826 66.7604 32.8267 66.9063 33.6933C67.0619 34.5672 66.9452 35.3574 66.5563 36.064C66.187 36.771 65.6242 37.3822 64.8677 37.8976C64.579 38.0943 64.2613 38.2762 63.9146 38.4434C63.5779 38.6039 63.227 38.7394 62.862 38.8501C62.4971 38.9607 62.1182 39.0394 61.7254 39.0863C61.3521 39.1336 60.9946 39.1356 60.6529 39.0924C60.5229 38.7946 60.3578 38.5275 60.1578 38.2912C59.9677 38.0481 59.7764 37.8541 59.584 37.7092C59.3819 37.5571 59.1786 37.461 58.9739 37.4211C58.7692 37.3811 58.5374 37.4493 58.2786 37.6256C58.9992 38.2111 59.4894 38.8087 59.7491 39.4184C60.0089 40.028 60.0878 40.6229 59.9859 41.2029C59.894 41.7762 59.641 42.3281 59.2269 42.8586C58.8228 43.3824 58.3072 43.8578 57.6801 44.2851C56.6051 45.0175 55.4779 45.475 54.2984 45.6576C53.1189 45.8401 51.8815 45.7792 50.5863 45.4748C49.3106 45.1709 47.967 44.6373 46.5553 43.874C45.1533 43.118 43.6873 42.164 42.1576 41.0119C41.0608 40.1859 40.133 39.4587 39.3743 38.8302C38.6056 38.2085 37.9724 37.6531 37.4747 37.1641C36.5943 36.3011 36.1821 35.5124 36.2382 34.798C36.3139 34.084 36.9041 33.3506 38.009 32.5979L51.7002 23.2698ZM53.7884 33.0877C53.7974 33.123 53.8257 33.1657 53.8735 33.216C53.9408 33.2667 53.9841 33.2993 54.0034 33.3138C54.2343 33.4877 54.4725 33.56 54.718 33.5308C54.9635 33.5015 55.2555 33.3716 55.5939 33.141L55.6835 33.08C56.0319 32.8426 56.2424 32.6371 56.3151 32.4634C56.3974 32.2969 56.3279 32.1303 56.1066 31.9637C56.0585 31.9274 55.9958 31.8874 55.9185 31.8434C55.8412 31.7995 55.7733 31.7698 55.7149 31.7544C55.6449 31.8159 55.5651 31.8772 55.4755 31.9382C55.386 31.9992 55.2914 32.0637 55.1919 32.1315L53.7884 33.0877ZM48.1596 36.9226C48.1686 36.9579 48.1969 37.0007 48.2447 37.051C48.3121 37.1017 48.3554 37.1343 48.3746 37.1488C48.6055 37.3227 48.8288 37.4052 49.0444 37.3962C49.2701 37.3805 49.5521 37.2574 49.8905 37.0268L50.1742 36.8336C50.5226 36.5962 50.7381 36.3873 50.8207 36.2068C50.9129 36.0335 50.8484 35.8636 50.6271 35.6969C50.579 35.6607 50.5163 35.6206 50.439 35.5767C50.3617 35.5327 50.2938 35.5031 50.2355 35.4876C50.1654 35.5491 50.0857 35.6104 49.9961 35.6714C49.9065 35.7325 49.8119 35.7969 49.7124 35.8647L48.1596 36.9226ZM64.7971 45.8327C65.2685 46.1877 65.6662 46.5586 65.99 46.9452C66.3138 47.3318 66.5344 47.7335 66.6518 48.1503C66.7692 48.5672 66.7735 49.0059 66.6647 49.4664C66.5658 49.9202 66.3292 50.3988 65.9549 50.9022C66.3321 51.1006 66.6651 51.1015 66.9537 50.9048C67.1827 50.7489 67.3895 50.4906 67.5744 50.1301C67.7688 49.7768 67.8523 49.3542 67.8248 48.8624C67.8069 48.3777 67.6237 47.8401 67.2754 47.2493C66.9466 46.6591 66.3734 46.056 65.5556 45.4402C65.0938 45.0924 64.6547 44.8188 64.2383 44.6195C63.8315 44.4274 63.4727 44.2785 63.1619 44.1729C63.0043 43.7973 62.9302 43.413 62.9395 43.0203C62.9587 42.6207 63.0513 42.2265 63.2172 41.8374C63.3928 41.4556 63.6366 41.0824 63.9488 40.7179C64.2707 40.3606 64.6506 40.0328 65.0885 39.7344C66.3128 38.9003 67.6179 38.3768 69.0038 38.1641C70.3896 37.9513 71.7651 37.9664 73.1304 38.2092C74.5152 38.4526 75.8518 38.8737 77.14 39.4727C78.4283 40.0716 79.5919 40.7624 80.631 41.5449C81.5643 42.2477 82.3512 42.926 82.9918 43.5798C83.6325 44.2336 84.1515 44.8529 84.5489 45.4377C84.9563 46.0158 85.2569 46.5563 85.4506 47.0591C85.6639 47.5624 85.8001 48.0147 85.8592 48.4161C85.6465 48.7128 85.3799 49.0118 85.0594 49.313C84.7388 49.6141 84.3745 49.9037 83.9664 50.1818C83.6977 50.3649 83.39 50.54 83.0432 50.7073C82.7161 50.8749 82.3699 51.0211 82.0046 51.1458C81.6393 51.2705 81.2649 51.3669 80.8814 51.435C80.4978 51.5031 80.1251 51.5293 79.7631 51.5137C79.7187 51.3232 79.612 51.0715 79.4431 50.7588C79.2842 50.4392 79.0671 50.0972 78.7917 49.7328C78.536 49.3689 78.2266 48.9931 77.8637 48.6056C77.5007 48.218 77.098 47.8576 76.6554 47.5243C76.0493 47.0678 75.5811 46.7795 75.251 46.6594C74.9305 46.5466 74.6757 46.5546 74.4866 46.6834C74.3871 46.7512 74.3169 46.8198 74.2761 46.889C74.5183 47 74.7648 47.1356 75.0156 47.296C75.2664 47.4563 75.4976 47.6162 75.7093 47.7756C76.5367 48.3987 77.2402 49.0855 77.8198 49.8361C78.4093 50.5799 78.7679 51.3568 78.8956 52.1668C79.0429 52.9773 78.9058 53.8022 78.4844 54.6413C78.063 55.4804 77.2651 56.3001 76.0906 57.1003C75.1649 57.731 74.0965 58.1829 72.8855 58.4559C71.6745 58.729 70.3803 58.7965 69.0027 58.6586C67.6348 58.5279 66.2135 58.1715 64.7388 57.5891C63.2737 57.0141 61.8196 56.1831 60.3764 55.0963C59.6356 54.5384 58.9727 53.9964 58.3878 53.4702C57.793 52.9509 57.2668 52.4261 56.8093 51.896C56.3418 51.3726 55.9383 50.8402 55.5985 50.2989C55.2688 49.7507 54.9837 49.179 54.7431 48.5839C54.9034 48.0192 55.1513 47.4778 55.4867 46.9594C55.8222 46.441 56.3333 45.9479 57.0201 45.48C57.5576 45.1138 58.1565 44.8437 58.8167 44.6699C59.4866 44.5033 60.1639 44.4352 60.8487 44.4655C61.5434 44.4889 62.2309 44.614 62.911 44.8406C63.5911 45.0673 64.2198 45.398 64.7971 45.8327Z" fill="white"/>
<path d="M71.0763 79.2458L71.0323 78.0406C71.9192 77.9974 72.7175 77.7614 73.4274 77.3324C73.7244 77.1529 74.0063 76.9156 74.2732 76.6204C74.5399 76.3209 74.7375 76.0048 74.866 75.6721C74.9982 75.3373 75.0589 75.024 75.0482 74.7322C75.0357 74.3896 74.9281 74.1283 74.7253 73.9483C74.5224 73.764 74.1499 73.6519 73.608 73.612L73.0402 73.5726L72.4669 73.5364C71.4569 73.4509 70.9334 72.9027 70.8965 71.892C70.8694 71.1519 71.0658 70.3979 71.4857 69.6298C71.909 68.8553 72.5879 68.1858 73.5224 67.6211C74.1236 67.2578 74.7086 67.0081 75.2775 66.8718L75.3175 67.9693C74.688 68.0644 74.0799 68.2892 73.4931 68.6438C73.0259 68.9261 72.6526 69.2986 72.3734 69.7612C72.0978 70.2217 71.9674 70.6549 71.9822 71.0609C71.9969 71.4626 72.1196 71.73 72.3502 71.8629C72.5809 71.9958 72.8724 72.0704 73.2247 72.0866L73.6593 72.1287L74.2 72.1845L74.6566 72.2198C75.6043 72.3215 76.0964 72.8713 76.1328 73.8693C76.1606 74.6305 75.9473 75.4273 75.4927 76.2595C75.0382 77.0917 74.2876 77.8241 73.2408 78.4566C72.9076 78.6579 72.5877 78.8167 72.2809 78.9329C71.978 79.0511 71.5765 79.1554 71.0763 79.2458ZM78.4892 69.3658C78.7791 68.5855 79.134 67.9151 79.5541 67.3544C79.9741 66.7937 80.3652 66.4039 80.7274 66.1851C81.2345 65.8787 81.7002 65.8588 82.1245 66.1253C82.5489 66.3919 82.7801 67.0454 82.8181 68.0857C82.8481 68.9061 82.739 69.7219 82.491 70.5331C82.2465 71.3378 81.9066 72.0641 81.4712 72.7118C81.0357 73.3554 80.4865 73.8774 79.8237 74.2779C79.6354 74.3917 79.3448 74.5435 78.9519 74.7334C78.8936 74.7599 78.8063 74.8019 78.69 74.8592L78.7906 77.6123L77.78 78.2229L77.4206 68.3842L78.4311 67.7736L78.4892 69.3658ZM78.5405 70.7677L78.6515 73.8062C79.0213 73.6951 79.3602 73.5466 79.668 73.3605C80.2801 72.9907 80.7842 72.4008 81.1804 71.5909C81.58 70.7746 81.762 69.8801 81.7264 68.9074C81.7006 68.2012 81.5672 67.7394 81.326 67.522C81.0848 67.3047 80.8194 67.2835 80.5296 67.4586C80.2145 67.649 79.8736 68.0452 79.5069 68.6471C79.1438 69.2469 78.8217 69.9538 78.5405 70.7677ZM88.3675 67.3842C88.0812 68.1623 87.7263 68.8328 87.3026 69.3957C86.8826 69.9564 86.4915 70.3461 86.1293 70.565C85.6222 70.8714 85.1565 70.8913 84.7322 70.6247C84.3114 70.3559 84.0821 69.7014 84.0441 68.661C84.0141 67.8406 84.1214 67.028 84.3659 66.2233C84.6103 65.4143 84.9502 64.6881 85.3857 64.0445C85.8211 63.3968 86.3702 62.8726 87.033 62.4721C87.225 62.3562 87.5156 62.2043 87.9048 62.0167C87.9631 61.9901 88.0504 61.9482 88.1668 61.8908L89.1827 61.2769L89.3656 66.2819C89.3968 67.1361 89.4982 67.7837 89.6698 68.2247L88.6158 68.8615C88.5219 68.5206 88.4391 68.0282 88.3675 67.3842ZM88.3162 65.9823L88.2052 62.9438C87.8426 63.0505 87.5074 63.1969 87.1996 63.3829C86.5766 63.7594 86.0671 64.3546 85.6711 65.1688C85.2788 65.9807 85.1003 66.8709 85.1357 67.8393C85.1614 68.5413 85.293 69.0042 85.5307 69.228C85.7719 69.4454 86.0373 69.4665 86.3271 69.2914C86.6422 69.101 86.9831 68.7048 87.3498 68.1029C87.7165 67.5009 88.0386 66.7941 88.3162 65.9823ZM96.2198 64.0593C95.5522 64.735 94.9124 65.2578 94.3003 65.6276C93.6918 65.9953 93.1444 66.1597 92.658 66.1208C92.1751 66.0754 91.7913 65.8535 91.5065 65.455C91.2215 65.0524 91.066 64.4937 91.0399 63.779C91.0007 62.7048 91.2669 61.632 91.8385 60.5604C92.4138 59.4866 93.1252 58.6937 93.9727 58.1816C94.5993 57.803 95.2671 57.5399 95.9762 57.3924L96.0177 58.5279C95.2977 58.5782 94.6588 58.772 94.101 59.109C93.7316 59.3322 93.3878 59.6502 93.0697 60.0628C92.7515 60.4712 92.5119 60.9553 92.3509 61.515C92.19 62.0748 92.1183 62.5936 92.1357 63.0714C92.159 63.71 92.3515 64.2161 92.7132 64.5898C93.0784 64.9612 93.6268 64.9259 94.3585 64.4838C94.5794 64.3503 94.7961 64.2021 95.0086 64.0391C95.2209 63.872 95.6108 63.5002 96.1783 62.9238L96.2198 64.0593ZM102.833 59.7912C102.041 60.7275 101.285 61.4134 100.565 61.8489C100.018 62.1794 99.523 62.3162 99.0804 62.2595C98.6378 62.2028 98.2753 61.9593 97.9931 61.529C97.7143 61.0924 97.5626 60.5378 97.5381 59.8654C97.5144 59.2184 97.6149 58.5223 97.8394 57.7772C98.0639 57.0321 98.391 56.3611 98.8208 55.7643C99.2505 55.1632 99.737 54.6985 100.28 54.3702C101.001 53.9347 101.59 53.8859 102.046 54.2238C102.506 54.5595 102.759 55.3532 102.805 56.605L102.814 56.8587L98.6311 59.3865C98.649 59.877 98.7524 60.2728 98.941 60.5737C99.1333 60.8724 99.3763 61.0369 99.6698 61.067C99.9634 61.0971 100.293 61.0016 100.659 60.7805C101.311 60.3866 102.022 59.6973 102.793 58.7128L102.833 59.7912ZM98.6587 58.4686L101.685 56.6401L101.679 56.4688C101.657 55.8895 101.519 55.5018 101.264 55.3059C101.009 55.11 100.678 55.1346 100.273 55.3797C99.8635 55.627 99.5149 56.017 99.2271 56.5497C98.9428 57.0759 98.7533 57.7155 98.6587 58.4686Z" fill="white"/>
<path d="M134.161 67V37.75H147.171C148.948 37.75 150.471 38.3898 151.741 39.6695C153.021 40.9492 153.661 42.4727 153.661 44.2398V45.8852C153.661 47.7844 153.117 49.2773 152.03 50.3641C150.954 51.4508 149.334 52.1211 147.171 52.375C149.334 52.375 150.954 53.0301 152.03 54.3402C153.117 55.6402 153.661 57.1484 153.661 58.8648V60.5102C153.661 62.2672 153.016 63.7906 151.726 65.0805C150.446 66.3602 148.928 67 147.171 67H134.161ZM140.65 50.7602H143.911C144.794 50.7602 145.556 50.4402 146.196 49.8004C146.846 49.1504 147.171 48.3836 147.171 47.5V44.2398C147.171 43.3562 146.846 42.5996 146.196 41.9699C145.556 41.3301 144.794 41.0102 143.911 41.0102H140.65V50.7602ZM140.65 63.7398H143.911C144.794 63.7398 145.556 63.4199 146.196 62.7801C146.846 62.1402 147.171 61.3836 147.171 60.5102V57.25C147.171 55.0766 146.084 53.9898 143.911 53.9898H140.65V63.7398ZM160.135 67V37.75H166.625V67H160.135ZM179.65 44.2398H186.171C187.948 44.2398 189.471 44.8848 190.741 46.1746C192.021 47.4543 192.661 48.9828 192.661 50.7602V60.5102C192.661 62.2672 192.021 63.7906 190.741 65.0805C189.471 66.3602 187.948 67 186.171 67H179.65C177.873 67 176.345 66.3652 175.065 65.0957C173.795 63.816 173.161 62.2875 173.161 60.5102V50.7602C173.161 48.9625 173.8 47.4289 175.08 46.1594C176.36 44.8797 177.883 44.2398 179.65 44.2398ZM179.65 50.7602V60.5102C179.65 61.3836 179.965 62.1402 180.595 62.7801C181.235 63.4199 182.007 63.7398 182.911 63.7398C183.814 63.7398 184.581 63.4199 185.211 62.7801C185.851 62.1402 186.171 61.3836 186.171 60.5102V50.7602C186.171 49.8664 185.846 49.0996 185.196 48.4598C184.556 47.8199 183.794 47.5 182.911 47.5C182.017 47.5 181.25 47.8199 180.61 48.4598C179.97 49.0996 179.65 49.8664 179.65 50.7602ZM215.375 50.7602H212.145C211.891 48.5867 210.805 47.5 208.885 47.5C207.991 47.5 207.225 47.8199 206.585 48.4598C205.945 49.0996 205.625 49.8664 205.625 50.7602V60.5102C205.625 61.3836 205.94 62.1402 206.57 62.7801C207.209 63.4199 207.981 63.7398 208.885 63.7398C210.805 63.7398 211.891 62.6633 212.145 60.5102H215.375C215.111 64.8367 212.948 67 208.885 67H205.625C203.848 67 202.319 66.3652 201.039 65.0957C199.77 63.816 199.135 62.2875 199.135 60.5102V50.7602C199.135 48.9625 199.775 47.4289 201.055 46.1594C202.334 44.8797 203.858 44.2398 205.625 44.2398H208.885C212.968 44.2398 215.131 46.4133 215.375 50.7602ZM221.911 67V37.75H228.4V52.375L238.15 44.2398H244.671L231.051 55.6352L244.671 67H238.15L228.4 58.8648V67H221.911ZM264.125 50.7602H260.895C260.611 48.5867 259.585 47.5 257.818 47.5C256.67 47.5 255.807 47.7285 255.228 48.1855C254.649 48.6324 254.36 49.3027 254.36 50.1965C254.36 51.1309 255.939 52.441 259.098 54.127C261.667 55.5082 263.145 56.6559 263.531 57.5699C263.927 58.4738 264.125 59.4387 264.125 60.4645C264.125 62.2723 263.485 63.816 262.205 65.0957C260.936 66.3652 259.413 67 257.635 67H254.375C250.048 67 247.885 64.8367 247.885 60.5102H251.145C251.399 62.6734 252.415 63.7551 254.192 63.7551C255.34 63.7551 256.203 63.5266 256.782 63.0695C257.361 62.6125 257.65 61.9371 257.65 61.0434C257.65 60.1293 256.076 58.8191 252.928 57.1129C250.348 55.7418 248.86 54.5992 248.464 53.6852C248.078 52.7711 247.885 51.8062 247.885 50.7906C247.885 48.9727 248.525 47.4289 249.805 46.1594C251.084 44.8797 252.608 44.2398 254.375 44.2398H257.635C261.698 44.2398 263.861 46.4133 264.125 50.7602ZM270.661 44.2398H277.15V47.5C277.15 46.4031 277.425 45.5855 277.973 45.0473C278.521 44.509 279.334 44.2398 280.411 44.2398H283.671C285.448 44.2398 286.971 44.8848 288.241 46.1746C289.521 47.4543 290.161 48.9828 290.161 50.7602V60.5102C290.161 62.2875 289.521 63.816 288.241 65.0957C286.971 66.3652 285.448 67 283.671 67H277.15V73.4898H270.661V44.2398ZM277.15 63.7398H280.411C281.294 63.7398 282.056 63.425 282.696 62.7953C283.346 62.1555 283.671 61.3937 283.671 60.5102V50.7602C283.671 49.8664 283.346 49.1047 282.696 48.475C282.056 47.8352 281.294 47.5152 280.411 47.5152C279.517 47.5051 278.75 47.8199 278.11 48.4598C277.47 49.0996 277.15 49.8664 277.15 50.7602V63.7398ZM309.645 53.9898V50.7602C309.645 49.8664 309.32 49.0996 308.67 48.4598C308.03 47.8199 307.269 47.5 306.385 47.5H303.125C301.205 47.5 300.129 48.5867 299.895 50.7602H296.635C297.133 46.4133 299.296 44.2398 303.125 44.2398H309.645C311.423 44.2398 312.946 44.8848 314.216 46.1746C315.495 47.4543 316.135 48.9828 316.135 50.7602V67H309.645V63.7398C309.391 65.9133 308.305 67 306.385 67H303.125C301.348 67 299.819 66.3652 298.539 65.0957C297.27 63.816 296.635 62.2875 296.635 60.5102V60.4797C296.635 58.7023 297.275 57.1789 298.555 55.9094C299.834 54.6297 301.358 53.9898 303.125 53.9898H309.645ZM309.645 57.25H306.385C305.491 57.25 304.725 57.5699 304.085 58.2098C303.445 58.8395 303.125 59.5961 303.125 60.4797V60.5102C303.125 61.3836 303.44 62.1402 304.07 62.7801C304.709 63.4199 305.481 63.7398 306.385 63.7398C307.289 63.7398 308.056 63.4199 308.686 62.7801C309.325 62.1402 309.645 61.3836 309.645 60.5102V57.25ZM338.85 50.7602H335.62C335.366 48.5867 334.279 47.5 332.36 47.5C331.466 47.5 330.699 47.8199 330.059 48.4598C329.42 49.0996 329.1 49.8664 329.1 50.7602V60.5102C329.1 61.3836 329.414 62.1402 330.044 62.7801C330.684 63.4199 331.456 63.7398 332.36 63.7398C334.279 63.7398 335.366 62.6633 335.62 60.5102H338.85C338.586 64.8367 336.422 67 332.36 67H329.1C327.322 67 325.794 66.3652 324.514 65.0957C323.245 63.816 322.61 62.2875 322.61 60.5102V50.7602C322.61 48.9625 323.25 47.4289 324.529 46.1594C325.809 44.8797 327.332 44.2398 329.1 44.2398H332.36C336.443 44.2398 338.606 46.4133 338.85 50.7602ZM364.885 57.25H351.875V60.5102C351.875 61.3836 352.19 62.1402 352.82 62.7801C353.459 63.4199 354.231 63.7398 355.135 63.7398H358.395C360.548 63.7398 361.625 62.6633 361.625 60.5102H364.885C364.377 64.8367 362.214 67 358.395 67H351.875C350.098 67 348.569 66.3652 347.289 65.0957C346.02 63.816 345.385 62.2875 345.385 60.5102V50.7602C345.385 48.9625 346.025 47.4289 347.305 46.1594C348.584 44.8797 350.108 44.2398 351.875 44.2398H358.395C360.173 44.2398 361.696 44.8848 362.966 46.1746C364.245 47.4543 364.885 48.9828 364.885 50.7602V57.25ZM351.875 53.9898H358.395V50.7602C358.395 49.8664 358.07 49.0996 357.42 48.4598C356.78 47.8199 356.019 47.5 355.135 47.5C354.241 47.5 353.475 47.8199 352.835 48.4598C352.195 49.0996 351.875 49.8664 351.875 50.7602V53.9898Z" fill="black"/>
</svg>
