<svg width="311" height="253" viewBox="0 0 311 253" fill="none" xmlns="http://www.w3.org/2000/svg">
<g clip-path="url(#clip0_115_3)">
<path d="M44.52 100.01L44.86 138.24C44.8666 139.067 45.2266 139.687 45.94 140.1L56.55 146.23" stroke="#EC957F" stroke-width="2"/>
<path d="M56.55 146.23C56.15 150.3 59.09 150.51 61.28 152.21C63.3066 153.784 65.4 155.257 67.56 156.63C70.39 158.44 74.67 161.9 78.89 163.62C81.65 164.74 83.07 166.05 84.97 168.07C85.1233 168.23 85.27 168.227 85.41 168.06L86.8 166.41C87.0667 166.09 87.3833 166.03 87.75 166.23C94.8966 170.097 102.203 173.637 109.67 176.85C112.5 178.08 115.14 181.36 118.32 183.01C121.693 184.764 124.873 186.82 127.86 189.18C128.087 189.36 128.343 189.474 128.63 189.52C129.423 189.634 129.9 190.084 130.06 190.87C130.088 191 130.146 191.12 130.23 191.221C130.314 191.322 130.42 191.401 130.54 191.45C136.99 194.08 142.03 202.54 150.39 198.88C157.24 195.87 163.72 191.06 169.49 188.16C173.05 186.374 176.623 184.61 180.21 182.87C189.79 178.22 198.05 170.8 208.17 166.43C210.45 165.44 213.16 161.37 216.52 160.94C216.82 160.907 217.097 160.807 217.35 160.64L252.15 138.43C252.397 138.27 252.583 138.057 252.71 137.79C255.09 132.66 255.6 124.94 255.92 119.3C256.09 116.26 255.1 112.53 255.74 109.06C256.18 106.7 256.133 104.46 255.6 102.34C255.516 102.027 255.338 101.745 255.09 101.53C254.203 100.764 253.62 99.7435 253.34 98.4702" stroke="#DF4B23" stroke-width="2"/>
<path d="M253.34 98.4702L253.46 95.7402" stroke="#EC957F" stroke-width="2"/>
<path d="M253.46 95.7402C252.907 94.4135 252.807 93.0269 253.16 91.5802C253.24 91.2602 253.147 91.0035 252.88 90.8102C250.927 89.3702 249.493 87.5135 248.58 85.2402C248.47 84.967 248.277 84.7361 248.03 84.5802C239.003 78.9069 229.903 73.3635 220.73 67.9502C215.1 64.6302 207.72 61.7202 201.54 57.9102C190.16 50.8902 177.89 46.0202 166.47 39.0002C162.85 36.7802 159.12 35.5902 155.29 33.9502C153.17 33.0402 151.23 33.0102 149.01 32.5302C148.683 32.4635 148.367 32.4869 148.06 32.6002C140.907 35.2202 135.037 38.1702 130.45 41.4502C127.303 43.6969 124.477 45.4769 121.97 46.7902C119.33 48.1902 117.3 50.1102 114.73 51.6102C112.33 53.0102 110.513 54.1769 109.28 55.1102C101.04 61.3602 90.85 65.8802 83.28 70.5102C70.41 78.3802 58.97 86.7002 45.07 94.8002C43.0566 95.9735 42.7533 97.5969 44.16 99.6702C44.1733 99.6969 44.1833 99.6969 44.19 99.6702L44.29 99.3702C44.3166 99.2969 44.36 99.2869 44.42 99.3402C44.5133 99.4269 44.5466 99.6502 44.52 100.01" stroke="#DF4B23" stroke-width="2"/>
<path d="M253.46 95.7404C253.113 95.7937 252.777 95.7637 252.45 95.6504" stroke="#E49E8D" stroke-width="2"/>
<path d="M252.45 95.6501L252.61 95.0401C252.697 94.7135 252.607 94.4435 252.34 94.2301C242.647 86.3301 233.543 79.8368 225.03 74.7501C202.36 61.2001 176.31 48.5501 151.6 34.6501C151.345 34.5071 151.057 34.4336 150.764 34.4371C150.471 34.4406 150.183 34.521 149.93 34.6701C115.063 55.5568 80.3533 76.9301 45.7999 98.7901C45.5199 98.9635 45.4199 99.2768 45.4999 99.7301" stroke="#7A3524" stroke-width="2"/>
<path d="M45.5 99.7302C45.1466 99.6969 44.82 99.7902 44.52 100.01" stroke="#E49E8D" stroke-width="2"/>
<path d="M253.34 98.4702L251.14 134.6C251.112 135.017 250.983 135.42 250.766 135.775C250.548 136.131 250.247 136.427 249.89 136.64L147.97 197.38C147.716 197.532 147.424 197.608 147.128 197.599C146.832 197.591 146.545 197.497 146.3 197.33C132.487 187.97 118.223 179.107 103.51 170.74C98.69 167.99 91.96 165.35 86.67 162.5C76.6167 157.087 66.5767 151.664 56.55 146.23" stroke="#E49E8D" stroke-width="2"/>
<path d="M252.45 95.6504L148.66 156.91C148.509 157 148.337 157.047 148.162 157.045C147.987 157.044 147.817 156.993 147.67 156.9C137.16 150.27 126.89 143.63 115.59 138.21C104.17 132.73 92.73 127.73 81.82 121.1C69.8067 113.8 57.7 106.677 45.5 99.7304" stroke="#877E81" stroke-width="2"/>
<path d="M50.7 238.56C50.6 238.347 50.4533 238.224 50.26 238.19C43.06 236.87 37.08 233.59 29.4 237.21C29.2512 237.28 29.0905 237.319 28.9274 237.326C28.7643 237.333 28.602 237.307 28.45 237.25C26.77 236.66 21.63 234.4 20.36 236.27C18.53 238.97 16.87 241.03 20.14 243.74C24.02 246.954 27.1166 248.907 29.43 249.6C35.28 251.36 40.1 249.5 45.75 250.25C45.77 250.25 47.41 250.684 50.67 251.55C58.06 253.51 67.74 253.14 74.4 251.72C75.0333 251.58 75.0733 251.34 74.52 251C70.02 248.2 65.2 245.84 60.96 242.65C59.7666 241.757 58.4866 240.98 57.12 240.32C55.12 239.36 53.46 239.71 51.32 239.09C51.0333 239.01 50.8266 238.834 50.7 238.56Z" stroke="#DF3911" stroke-width="2"/>
<path d="M0 0H311V253H0V0ZM44.52 100.01L44.86 138.24C44.8667 139.067 45.2267 139.687 45.94 140.1L56.55 146.23C56.15 150.3 59.09 150.51 61.28 152.21C63.3067 153.783 65.4 155.257 67.56 156.63C70.39 158.44 74.67 161.9 78.89 163.62C81.65 164.74 83.07 166.05 84.97 168.07C85.1233 168.23 85.27 168.227 85.41 168.06L86.8 166.41C87.0667 166.09 87.3833 166.03 87.75 166.23C94.8967 170.097 102.203 173.637 109.67 176.85C112.5 178.08 115.14 181.36 118.32 183.01C121.693 184.763 124.873 186.82 127.86 189.18C128.087 189.36 128.343 189.473 128.63 189.52C129.423 189.633 129.9 190.083 130.06 190.87C130.088 190.999 130.146 191.12 130.23 191.221C130.314 191.322 130.42 191.401 130.54 191.45C136.99 194.08 142.03 202.54 150.39 198.88C157.24 195.87 163.72 191.06 169.49 188.16C173.05 186.373 176.623 184.61 180.21 182.87C189.79 178.22 198.05 170.8 208.17 166.43C210.45 165.44 213.16 161.37 216.52 160.94C216.82 160.907 217.097 160.807 217.35 160.64L252.15 138.43C252.397 138.27 252.583 138.057 252.71 137.79C255.09 132.66 255.6 124.94 255.92 119.3C256.09 116.26 255.1 112.53 255.74 109.06C256.18 106.7 256.133 104.46 255.6 102.34C255.516 102.027 255.338 101.745 255.09 101.53C254.203 100.763 253.62 99.7433 253.34 98.47L253.46 95.74C252.907 94.4133 252.807 93.0267 253.16 91.58C253.24 91.26 253.147 91.0033 252.88 90.81C250.927 89.37 249.493 87.5133 248.58 85.24C248.47 84.9668 248.277 84.7359 248.03 84.58C239.003 78.9067 229.903 73.3633 220.73 67.95C215.1 64.63 207.72 61.72 201.54 57.91C190.16 50.89 177.89 46.02 166.47 39C162.85 36.78 159.12 35.59 155.29 33.95C153.17 33.04 151.23 33.01 149.01 32.53C148.683 32.4633 148.367 32.4867 148.06 32.6C140.907 35.22 135.037 38.17 130.45 41.45C127.303 43.6967 124.477 45.4767 121.97 46.79C119.33 48.19 117.3 50.11 114.73 51.61C112.33 53.01 110.513 54.1767 109.28 55.11C101.04 61.36 90.85 65.88 83.28 70.51C70.41 78.38 58.97 86.7 45.07 94.8C43.0567 95.9733 42.7533 97.5967 44.16 99.67C44.1733 99.6967 44.1833 99.6967 44.19 99.67L44.29 99.37C44.3167 99.2967 44.36 99.2867 44.42 99.34C44.5133 99.4267 44.5467 99.65 44.52 100.01ZM50.7 238.56C50.6 238.347 50.4533 238.223 50.26 238.19C43.06 236.87 37.08 233.59 29.4 237.21C29.2512 237.279 29.0906 237.319 28.9275 237.326C28.7644 237.332 28.6021 237.307 28.45 237.25C26.77 236.66 21.63 234.4 20.36 236.27C18.53 238.97 16.87 241.03 20.14 243.74C24.02 246.953 27.1167 248.907 29.43 249.6C35.28 251.36 40.1 249.5 45.75 250.25C45.77 250.25 47.41 250.683 50.67 251.55C58.06 253.51 67.74 253.14 74.4 251.72C75.0333 251.58 75.0733 251.34 74.52 251C70.02 248.2 65.2 245.84 60.96 242.65C59.7667 241.757 58.4867 240.98 57.12 240.32C55.12 239.36 53.46 239.71 51.32 239.09C51.0333 239.01 50.8267 238.833 50.7 238.56Z" fill="#E74215"/>
<path d="M253.46 95.7402C253.113 95.7935 252.777 95.7635 252.45 95.6502L252.61 95.0402C252.697 94.7135 252.607 94.4435 252.34 94.2302C242.647 86.3302 233.543 79.8369 225.03 74.7502C202.36 61.2002 176.31 48.5502 151.6 34.6502C151.345 34.5071 151.057 34.4337 150.764 34.4372C150.471 34.4407 150.183 34.521 149.93 34.6702C115.063 55.5569 80.3533 76.9302 45.8 98.7902C45.52 98.9635 45.42 99.2769 45.5 99.7302C45.1466 99.6969 44.82 99.7902 44.52 100.01C44.5466 99.6502 44.5133 99.4269 44.42 99.3402C44.36 99.2869 44.3166 99.2969 44.29 99.3702L44.19 99.6702C44.1833 99.6969 44.1733 99.6969 44.16 99.6702C42.7533 97.5969 43.0566 95.9735 45.07 94.8002C58.97 86.7002 70.41 78.3802 83.28 70.5102C90.85 65.8802 101.04 61.3602 109.28 55.1102C110.513 54.1769 112.33 53.0102 114.73 51.6102C117.3 50.1102 119.33 48.1902 121.97 46.7902C124.477 45.4769 127.303 43.6969 130.45 41.4502C135.037 38.1702 140.907 35.2202 148.06 32.6002C148.367 32.4869 148.683 32.4635 149.01 32.5302C151.23 33.0102 153.17 33.0402 155.29 33.9502C159.12 35.5902 162.85 36.7802 166.47 39.0002C177.89 46.0202 190.16 50.8902 201.54 57.9102C207.72 61.7202 215.1 64.6302 220.73 67.9502C229.903 73.3635 239.003 78.9069 248.03 84.5802C248.277 84.7361 248.47 84.967 248.58 85.2402C249.493 87.5135 250.927 89.3702 252.88 90.8102C253.147 91.0035 253.24 91.2602 253.16 91.5802C252.807 93.0269 252.907 94.4135 253.46 95.7402Z" fill="#D65430"/>
<path d="M252.977 96.2131L149.187 157.473C149.036 157.563 148.864 157.61 148.689 157.608C148.514 157.606 148.344 157.556 148.197 157.463C137.687 150.833 127.417 144.193 116.117 138.773C104.697 133.293 93.2566 128.293 82.3467 121.663C70.3334 114.363 58.2266 107.24 46.0267 100.293C45.9467 99.8398 46.0467 99.5265 46.3267 99.3531C80.8798 77.4931 115.59 56.1198 150.457 35.2331C150.71 35.084 150.997 35.0036 151.29 35.0001C151.583 34.9966 151.872 35.0701 152.127 35.2131C176.837 49.1131 202.887 61.7631 225.557 75.3131C234.07 80.3998 243.173 86.8931 252.867 94.7931C253.133 95.0065 253.223 95.2765 253.137 95.6031L252.977 96.2131ZM186.927 112.623C197.057 112.163 213.057 108.793 216.247 97.2531C218.297 89.8131 213.937 83.1231 208.017 78.8231C193.417 68.2231 175.977 59.8031 159.447 52.6531C152.727 49.7431 142.807 50.8331 136.927 55.9731C135.577 57.1531 133.427 58.0431 132.407 58.6631C115.293 69.1965 98.2166 79.7898 81.1767 90.4431C73.1467 95.4731 73.5067 102.043 80.9667 107.473C96.1366 118.503 115.207 126.543 132.837 132.033C148.407 136.883 168.897 138.833 182.107 126.973C186.387 123.123 187.817 118.803 186.447 113.273C112.5 68 186.507 112.643 186.927 112.623Z" fill="#1D1518"/>
<path d="M253.34 98.4702C253.62 99.7435 254.203 100.764 255.09 101.53C255.338 101.745 255.516 102.027 255.6 102.34C256.133 104.46 256.18 106.7 255.74 109.06C255.1 112.53 256.09 116.26 255.92 119.3C255.6 124.94 255.09 132.66 252.71 137.79C252.583 138.057 252.397 138.27 252.15 138.43L217.35 160.64C217.097 160.807 216.82 160.907 216.52 160.94C213.16 161.37 210.45 165.44 208.17 166.43C198.05 170.8 189.79 178.22 180.21 182.87C176.623 184.61 173.05 186.374 169.49 188.16C163.72 191.06 157.24 195.87 150.39 198.88C142.03 202.54 136.99 194.08 130.54 191.45C130.42 191.401 130.314 191.322 130.23 191.221C130.146 191.12 130.088 191 130.06 190.87C129.9 190.084 129.423 189.634 128.63 189.52C128.343 189.474 128.087 189.36 127.86 189.18C124.873 186.82 121.693 184.764 118.32 183.01C115.14 181.36 112.5 178.08 109.67 176.85C102.203 173.637 94.8966 170.097 87.75 166.23C87.3833 166.03 87.0667 166.09 86.8 166.41L85.41 168.06C85.27 168.227 85.1233 168.23 84.97 168.07C83.07 166.05 81.65 164.74 78.89 163.62C74.67 161.9 70.39 158.44 67.56 156.63C65.4 155.257 63.3066 153.784 61.28 152.21C59.09 150.51 56.15 150.3 56.55 146.23C66.5766 151.664 76.6166 157.087 86.67 162.5C91.96 165.35 98.69 167.99 103.51 170.74C118.223 179.107 132.487 187.97 146.3 197.33C146.545 197.497 146.832 197.591 147.128 197.599C147.424 197.608 147.716 197.532 147.97 197.38L249.89 136.64C250.247 136.427 250.548 136.131 250.766 135.775C250.983 135.42 251.112 135.017 251.14 134.6L253.34 98.4702Z" fill="#D65430"/>
<path d="M51.32 239.09C53.46 239.71 55.12 239.36 57.12 240.32C58.4866 240.98 59.7666 241.756 60.96 242.65C65.2 245.84 70.02 248.2 74.52 251C75.0733 251.34 75.0333 251.58 74.4 251.72C67.74 253.14 58.06 253.51 50.67 251.55C47.41 250.683 45.77 250.25 45.75 250.25C40.1 249.5 35.28 251.36 29.43 249.6C27.1166 248.906 24.02 246.953 20.14 243.74C16.87 241.03 18.53 238.97 20.36 236.27C21.63 234.4 26.77 236.66 28.45 237.25C28.602 237.306 28.7643 237.332 28.9274 237.325C29.0905 237.318 29.2512 237.279 29.4 237.21C37.08 233.59 43.06 236.87 50.26 238.19C50.4533 238.223 50.6 238.346 50.7 238.56C50.8266 238.833 51.0333 239.01 51.32 239.09Z" fill="#D72F0C"/>
<path d="M169.132 154.647L166.904 156.082C166.591 154.428 165.826 153.994 164.607 154.78C163.822 155.285 163.245 155.891 162.875 156.597C162.505 157.303 162.349 158.101 162.407 158.991C162.45 159.656 162.712 160.138 163.191 160.436L168.355 163.713C169.306 164.313 169.826 165.282 169.913 166.621L170.001 167.968C170.095 169.407 169.739 170.936 168.932 172.556C168.125 174.168 167.104 175.371 165.871 176.165L163.622 177.614C162.137 178.571 160.991 178.845 160.183 178.438C159.375 178.031 158.914 176.947 158.799 175.184L161.048 173.735C161.046 173.927 161.048 174.077 161.055 174.185C161.102 174.909 161.373 175.306 161.867 175.378C162.361 175.45 162.888 175.306 163.448 174.945C164.247 174.43 164.806 173.831 165.127 173.148C165.447 172.465 165.579 171.687 165.522 170.814C165.478 170.141 165.217 169.659 164.738 169.37L159.576 166.118C158.625 165.526 158.105 164.556 158.017 163.209L157.929 161.862C157.835 160.415 158.191 158.886 158.999 157.274C159.806 155.662 160.826 154.459 162.059 153.665L164.308 152.216C167.11 150.411 168.718 151.221 169.132 154.647ZM173.64 151.743L178.117 148.859L178.291 151.529C178.232 150.631 178.378 149.839 178.727 149.155C179.077 148.471 179.623 147.889 180.366 147.411L182.614 145.963C183.841 145.173 184.926 145.024 185.871 145.516C186.822 145.995 187.345 146.962 187.44 148.418L187.961 156.401C188.056 157.856 187.696 159.392 186.882 161.008C186.074 162.612 185.057 163.808 183.831 164.598L179.333 167.495L179.68 172.808L175.203 175.692L173.64 151.743ZM179.159 164.825L181.408 163.377C182.017 162.984 182.526 162.388 182.934 161.588C183.348 160.776 183.531 160.008 183.484 159.284L182.963 151.301C182.915 150.569 182.65 150.09 182.168 149.863C181.693 149.624 181.15 149.7 180.541 150.093C179.924 150.482 179.411 151.08 179.004 151.888C178.597 152.696 178.417 153.466 178.465 154.198L179.159 164.825ZM201.053 142.405L200.881 139.761C200.833 139.029 200.568 138.545 200.085 138.31C199.609 138.071 199.067 138.147 198.457 138.54L196.209 139.988C194.884 140.841 194.2 142.209 194.155 144.093L191.906 145.541C192.017 141.761 193.393 139.02 196.034 137.319L200.532 134.422C201.758 133.632 202.843 133.484 203.788 133.976C204.739 134.455 205.262 135.422 205.357 136.877L206.225 150.174L201.749 153.057L201.574 150.388C201.515 152.28 200.824 153.653 199.5 154.506L197.251 155.954C196.025 156.744 194.936 156.903 193.986 156.432C193.042 155.949 192.522 154.979 192.427 153.524L192.426 153.499C192.331 152.044 192.69 150.512 193.505 148.904C194.32 147.288 195.336 146.087 196.555 145.302L201.053 142.405ZM201.227 145.074L198.979 146.523C198.362 146.92 197.85 147.523 197.443 148.331C197.035 149.131 196.855 149.892 196.902 150.616L196.904 150.641C196.951 151.356 197.208 151.835 197.677 152.08C198.152 152.319 198.702 152.238 199.325 151.837C199.949 151.435 200.461 150.832 200.861 150.029C201.268 149.22 201.448 148.459 201.402 147.744L201.227 145.074ZM221.026 126.785L218.798 128.22C218.507 126.553 217.699 126.147 216.375 126.999C215.758 127.396 215.247 127.999 214.839 128.807C214.432 129.615 214.253 130.385 214.3 131.117L214.822 139.1C214.868 139.815 215.126 140.295 215.594 140.539C216.07 140.779 216.62 140.698 217.243 140.296C218.567 139.443 219.259 138.079 219.319 136.203L221.547 134.768C221.596 138.428 220.22 141.16 217.417 142.965L215.168 144.414C213.942 145.204 212.854 145.363 211.903 144.892C210.959 144.408 210.44 143.439 210.345 141.984L209.824 134.001C209.728 132.529 210.087 130.989 210.902 129.381C211.716 127.764 212.733 126.564 213.952 125.779L216.201 124.33C219.017 122.516 220.626 123.334 221.026 126.785ZM239.333 120.531L230.358 126.312L230.532 128.981C230.579 129.696 230.837 130.176 231.305 130.42C231.781 130.66 232.33 130.579 232.954 130.177L235.203 128.728C236.688 127.772 237.373 126.412 237.258 124.649L239.507 123.201C239.388 126.969 238.011 129.701 235.377 131.398L230.879 134.295C229.653 135.084 228.565 135.244 227.614 134.773C226.67 134.289 226.15 133.32 226.055 131.865L225.534 123.882C225.438 122.41 225.798 120.87 226.613 119.262C227.427 117.645 228.444 116.445 229.663 115.659L234.16 112.762C235.386 111.973 236.472 111.824 237.416 112.316C238.368 112.795 238.891 113.762 238.986 115.218L239.333 120.531ZM230.184 123.642L234.682 120.745L234.509 118.101C234.461 117.369 234.196 116.886 233.713 116.651C233.238 116.411 232.695 116.488 232.086 116.88C231.469 117.277 230.957 117.88 230.55 118.688C230.143 119.496 229.963 120.266 230.011 120.998L230.184 123.642Z" fill="black"/>
<path d="M169.132 154.647L169.262 156.642L171.049 155.491L170.802 153.444L169.132 154.647ZM166.904 156.082L165.253 157.414L165.558 159.028L167.034 158.077L166.904 156.082ZM162.875 156.597L161.624 155.893L161.624 155.893L162.875 156.597ZM163.191 160.436L164.361 158.3L164.354 158.296L163.191 160.436ZM168.355 163.713L167.185 165.848L167.187 165.85L168.355 163.713ZM168.932 172.556L170.217 173.193L170.222 173.185L168.932 172.556ZM160.183 178.438L161.28 176.261L160.183 178.438ZM158.799 175.184L158.669 173.188L156.987 174.271L157.117 176.267L158.799 175.184ZM161.048 173.735L162.734 172.837L162.759 170.553L160.917 171.739L161.048 173.735ZM161.867 175.378L161.037 177.639L161.867 175.378ZM165.127 173.148L166.459 173.69L165.127 173.148ZM164.738 169.37L163.571 171.507L163.577 171.511L163.584 171.515L164.738 169.37ZM159.576 166.118L160.743 163.98L160.739 163.978L159.576 166.118ZM158.999 157.274L157.713 156.637L157.713 156.637L158.999 157.274ZM169.001 152.651L166.773 154.086L167.034 158.077L169.262 156.642L169.001 152.651ZM168.554 154.749C168.357 153.708 167.971 152.78 167.229 152.359C166.439 151.911 165.457 152.152 164.476 152.784L164.737 156.775C164.87 156.69 164.932 156.675 164.948 156.672C164.957 156.67 164.956 156.67 164.962 156.674C164.985 156.687 165.138 156.802 165.253 157.414L168.554 154.749ZM164.476 152.784C163.445 153.448 162.387 154.437 161.624 155.893L164.126 157.301C164.126 157.301 164.126 157.301 164.126 157.301C164.126 157.301 164.126 157.301 164.126 157.3C164.126 157.3 164.127 157.299 164.128 157.297C164.13 157.294 164.133 157.289 164.139 157.28C164.152 157.263 164.177 157.231 164.221 157.184C164.312 157.088 164.475 156.944 164.737 156.775L164.476 152.784ZM161.624 155.893C160.843 157.383 160.645 158.842 160.725 160.074L164.088 157.908C164.07 157.635 164.091 157.459 164.109 157.37C164.124 157.294 164.135 157.284 164.126 157.301L161.624 155.893ZM160.725 160.074C160.807 161.318 161.304 162.126 162.028 162.576L164.354 158.296C164.119 158.15 164.094 157.995 164.088 157.908L160.725 160.074ZM162.021 162.571L167.185 165.848L169.524 161.577L164.361 158.3L162.021 162.571ZM167.187 165.85C167.893 166.295 168.182 166.936 168.232 167.704L171.595 165.538C171.47 163.629 170.72 162.331 169.522 161.576L167.187 165.85ZM168.232 167.704L168.32 169.051L171.683 166.885L171.595 165.538L168.232 167.704ZM168.32 169.051C168.378 169.949 168.173 170.862 167.642 171.928L170.222 173.185C171.304 171.011 171.812 168.865 171.683 166.885L168.32 169.051ZM167.647 171.92C167.127 172.956 166.522 173.667 165.741 174.17L166.002 178.161C167.687 177.076 169.122 175.381 170.217 173.193L167.647 171.92ZM165.741 174.17L163.492 175.618L163.753 179.61L166.002 178.161L165.741 174.17ZM163.492 175.618C162.271 176.404 161.631 176.438 161.28 176.261L159.086 180.615C160.351 181.252 162.003 180.737 163.753 179.61L163.492 175.618ZM161.28 176.261C160.929 176.085 160.575 175.55 160.48 174.101L157.117 176.267C157.253 178.343 157.822 179.978 159.086 180.615L161.28 176.261ZM158.929 177.179L161.178 175.731L160.917 171.739L158.669 173.188L158.929 177.179ZM159.361 174.633C159.359 174.851 159.361 175.073 159.374 175.268L162.737 173.102C162.735 173.082 162.732 173.003 162.734 172.837L159.361 174.633ZM159.374 175.268C159.46 176.595 160.011 177.489 161.037 177.639L162.696 173.118C162.683 173.116 162.686 173.114 162.697 173.121C162.703 173.124 162.709 173.129 162.716 173.136C162.723 173.142 162.729 173.149 162.734 173.157C162.745 173.173 162.748 173.185 162.747 173.182C162.746 173.178 162.74 173.155 162.737 173.102L159.374 175.268ZM161.037 177.639C161.82 177.753 162.681 177.518 163.579 176.94L163.318 172.949C163.095 173.093 162.901 173.147 162.696 173.118L161.037 177.639ZM163.579 176.94C164.6 176.283 165.722 175.261 166.459 173.69L163.795 172.607C163.839 172.515 163.867 172.499 163.809 172.562C163.741 172.635 163.59 172.774 163.318 172.949L163.579 176.94ZM166.459 173.69C167.126 172.268 167.28 170.897 167.203 169.731L163.841 171.897C163.879 172.478 163.769 172.663 163.795 172.607L166.459 173.69ZM167.203 169.731C167.122 168.484 166.627 167.669 165.892 167.224L163.584 171.515C163.806 171.65 163.834 171.798 163.841 171.897L167.203 169.731ZM165.905 167.232L160.743 163.98L158.409 168.255L163.571 171.507L165.905 167.232ZM160.739 163.978C160.04 163.543 159.749 162.905 159.699 162.126L156.336 164.292C156.461 166.207 157.209 167.509 158.413 168.257L160.739 163.978ZM159.699 162.126L159.611 160.779L156.248 162.945L156.336 164.292L159.699 162.126ZM159.611 160.779C159.551 159.87 159.758 158.96 160.284 157.911L157.713 156.637C156.624 158.811 156.118 160.96 156.248 162.945L159.611 160.779ZM160.284 157.911C160.803 156.874 161.409 156.163 162.189 155.661L161.929 151.669C160.243 152.755 158.809 154.45 157.713 156.637L160.284 157.911ZM162.189 155.661L164.438 154.212L164.178 150.221L161.929 151.669L162.189 155.661ZM164.438 154.212C165.545 153.499 166.155 153.464 166.519 153.647C166.901 153.84 167.288 154.412 167.461 155.849L170.802 153.444C170.562 151.456 169.938 149.911 168.712 149.293C167.469 148.667 165.874 149.128 164.178 150.221L164.438 154.212ZM173.64 151.743L173.51 149.747L171.828 150.83L171.958 152.826L173.64 151.743ZM178.117 148.859L179.798 147.776L179.668 145.781L177.986 146.864L178.117 148.859ZM185.871 145.516L184.764 147.688L184.769 147.69L184.774 147.693L185.871 145.516ZM186.882 161.008L185.601 160.363L186.882 161.008ZM179.333 167.495L179.203 165.499L177.522 166.582L177.652 168.578L179.333 167.495ZM179.68 172.808L179.81 174.804L181.492 173.721L181.362 171.726L179.68 172.808ZM175.203 175.692L173.522 176.775L173.652 178.771L175.334 177.688L175.203 175.692ZM179.159 164.825L177.478 165.908L177.608 167.904L179.289 166.821L179.159 164.825ZM182.934 161.588L184.206 162.251L184.206 162.251L182.934 161.588ZM182.168 149.863L181.071 152.04L181.082 152.045L181.092 152.05L182.168 149.863ZM180.541 150.093L180.652 152.101L180.661 152.095L180.671 152.089L180.541 150.093ZM173.77 153.739L178.247 150.855L177.986 146.864L173.51 149.747L173.77 153.739ZM176.435 149.942L176.61 152.612L179.972 150.446L179.798 147.776L176.435 149.942ZM179.972 150.446C179.934 149.852 180.054 149.711 179.998 149.821L177.457 148.489C176.702 149.967 176.531 151.409 176.61 152.612L179.972 150.446ZM179.998 149.821C179.957 149.9 180.015 149.716 180.496 149.407L180.235 145.415C179.231 146.062 178.196 147.041 177.457 148.489L179.998 149.821ZM180.496 149.407L182.745 147.958L182.484 143.967L180.235 145.415L180.496 149.407ZM182.745 147.958C183.511 147.465 184.153 147.37 184.764 147.688L186.977 143.344C185.699 142.678 184.17 142.881 182.484 143.967L182.745 147.958ZM184.774 147.693C185.392 148.005 185.699 148.585 185.758 149.501L189.121 147.335C188.991 145.339 188.251 143.986 186.967 143.339L184.774 147.693ZM185.758 149.501L186.279 157.484L189.642 155.318L189.121 147.335L185.758 149.501ZM186.279 157.484C186.339 158.399 186.13 159.312 185.601 160.363L188.163 161.654C189.262 159.472 189.773 157.313 189.642 155.318L186.279 157.484ZM185.601 160.363C185.081 161.395 184.476 162.103 183.701 162.602L183.961 166.594C185.638 165.513 187.067 163.828 188.163 161.654L185.601 160.363ZM183.701 162.602L179.203 165.499L179.464 169.491L183.961 166.594L183.701 162.602ZM177.652 168.578L177.999 173.891L181.362 171.726L181.015 166.412L177.652 168.578ZM179.55 170.813L175.073 173.696L175.334 177.688L179.81 174.804L179.55 170.813ZM176.885 174.609L175.321 150.66L171.958 152.826L173.522 176.775L176.885 174.609ZM179.289 166.821L181.538 165.373L181.278 161.381L179.029 162.83L179.289 166.821ZM181.538 165.373C182.597 164.691 183.513 163.611 184.206 162.251L181.661 160.926C181.539 161.166 181.438 161.278 181.278 161.381L181.538 165.373ZM184.206 162.251C184.906 160.877 185.249 159.478 185.166 158.201L181.803 160.367C181.814 160.537 181.79 160.674 181.661 160.926L184.206 162.251ZM185.166 158.201L184.644 150.218L181.282 152.384L181.803 160.367L185.166 158.201ZM184.644 150.218C184.561 148.938 184.073 148.066 183.245 147.676L181.092 152.05C181.227 152.114 181.27 152.2 181.282 152.384L184.644 150.218ZM183.265 147.686C182.459 147.28 181.478 147.41 180.41 148.097L180.671 152.089C180.823 151.991 180.926 151.967 181.071 152.04L183.265 147.686ZM180.429 148.085C179.353 148.763 178.421 149.857 177.723 151.243L180.285 152.534C180.401 152.303 180.494 152.2 180.652 152.101L180.429 148.085ZM177.723 151.243C177.029 152.62 176.701 154.013 176.784 155.281L180.147 153.115C180.134 152.92 180.165 152.772 180.285 152.534L177.723 151.243ZM176.784 155.281L177.478 165.908L180.84 163.743L180.147 153.115L176.784 155.281ZM201.053 142.405L201.183 144.401L202.865 143.318L202.735 141.322L201.053 142.405ZM200.085 138.31L198.988 140.487L198.993 140.49L198.998 140.492L200.085 138.31ZM194.155 144.093L194.285 146.088L195.796 145.116L195.841 143.229L194.155 144.093ZM191.906 145.541L190.221 146.39L190.151 148.751L192.036 147.537L191.906 145.541ZM203.788 133.976L202.681 136.147L202.686 136.15L202.691 136.153L203.788 133.976ZM206.225 150.174L206.356 152.17L208.037 151.087L207.907 149.091L206.225 150.174ZM201.749 153.057L200.067 154.14L200.197 156.136L201.879 155.053L201.749 153.057ZM201.574 150.388L203.256 149.305L199.889 151.232L201.574 150.388ZM193.986 156.432L192.884 158.607L192.889 158.61L192.894 158.612L193.986 156.432ZM193.505 148.904L194.782 149.558L194.786 149.55L193.505 148.904ZM201.227 145.074L202.909 143.991L202.779 141.996L201.097 143.079L201.227 145.074ZM197.443 148.331L198.715 148.994L198.72 148.985L198.724 148.976L197.443 148.331ZM197.677 152.08L196.57 154.251L196.575 154.254L196.58 154.257L197.677 152.08ZM200.861 150.029L199.58 149.383L199.576 149.392L199.571 149.401L200.861 150.029ZM202.735 141.322L202.562 138.678L199.199 140.844L199.372 143.488L202.735 141.322ZM202.562 138.678C202.479 137.399 201.992 136.528 201.172 136.128L198.998 140.492C199.143 140.563 199.187 140.659 199.199 140.844L202.562 138.678ZM201.182 136.133C200.376 135.727 199.394 135.857 198.327 136.544L198.588 140.536C198.739 140.438 198.843 140.414 198.988 140.487L201.182 136.133ZM198.327 136.544L196.078 137.993L196.339 141.984L198.588 140.536L198.327 136.544ZM196.078 137.993C195.088 138.63 194.119 139.613 193.416 141.019C192.74 142.37 192.498 143.738 192.469 144.956L195.841 143.229C195.856 142.564 195.98 142.306 195.988 142.289C195.991 142.283 195.998 142.268 196.031 142.231C196.071 142.187 196.164 142.096 196.339 141.984L196.078 137.993ZM194.025 142.097L191.776 143.545L192.036 147.537L194.285 146.088L194.025 142.097ZM193.591 144.692C193.639 143.079 193.949 141.999 194.305 141.291C194.633 140.636 195.174 139.953 196.165 139.315L195.904 135.323C194.254 136.386 192.785 137.924 191.738 140.01C190.717 142.042 190.284 144.223 190.221 146.39L193.591 144.692ZM196.165 139.315L200.662 136.418L200.402 132.426L195.904 135.323L196.165 139.315ZM200.662 136.418C201.429 135.924 202.07 135.829 202.681 136.147L204.895 131.804C203.616 131.138 202.088 131.34 200.402 132.426L200.662 136.418ZM202.691 136.153C203.31 136.464 203.616 137.045 203.676 137.96L207.039 135.794C206.909 133.799 206.169 132.445 204.885 131.799L202.691 136.153ZM203.676 137.96L204.544 151.257L207.907 149.091L207.039 135.794L203.676 137.96ZM206.095 148.178L201.618 151.062L201.879 155.053L206.356 152.17L206.095 148.178ZM203.43 151.974L203.256 149.305L199.893 151.471L200.067 154.14L203.43 151.974ZM199.889 151.232C199.868 151.9 199.743 152.165 199.73 152.191C199.725 152.202 199.716 152.221 199.68 152.26C199.638 152.306 199.544 152.398 199.369 152.51L199.63 156.502C200.621 155.864 201.587 154.882 202.293 153.482C202.971 152.136 203.221 150.768 203.26 149.544L199.889 151.232ZM199.369 152.51L197.121 153.959L197.381 157.95L199.63 156.502L199.369 152.51ZM197.121 153.959C196.345 154.458 195.694 154.559 195.078 154.253L192.894 158.612C194.179 159.248 195.704 159.03 197.381 157.95L197.121 153.959ZM195.088 154.258C194.475 153.944 194.169 153.361 194.109 152.441L190.746 154.607C190.876 156.597 191.608 157.953 192.884 158.607L195.088 154.258ZM194.109 152.441L194.107 152.416L190.744 154.582L190.746 154.607L194.109 152.441ZM194.107 152.416C194.047 151.501 194.256 150.596 194.782 149.558L192.229 148.25C191.125 150.429 190.614 152.586 190.744 154.582L194.107 152.416ZM194.786 149.55C195.318 148.495 195.925 147.788 196.686 147.298L196.425 143.306C194.748 144.386 193.322 146.081 192.224 148.259L194.786 149.55ZM196.686 147.298L201.183 144.401L200.923 140.409L196.425 143.306L196.686 147.298ZM201.097 143.079L198.848 144.527L199.109 148.519L201.358 147.07L201.097 143.079ZM198.848 144.527C197.78 145.215 196.856 146.308 196.162 147.685L198.724 148.976C198.844 148.737 198.944 148.624 199.109 148.519L198.848 144.527ZM196.171 147.668C195.472 149.039 195.138 150.431 195.221 151.699L198.584 149.533C198.572 149.354 198.599 149.222 198.715 148.994L196.171 147.668ZM195.221 151.699L195.223 151.724L198.585 149.558L198.584 149.533L195.221 151.699ZM195.223 151.724C195.304 152.979 195.778 153.839 196.57 154.251L198.784 149.908C198.639 149.832 198.597 149.733 198.585 149.558L195.223 151.724ZM196.58 154.257C197.395 154.667 198.386 154.521 199.456 153.832L199.195 149.841C199.018 149.955 198.91 149.971 198.774 149.903L196.58 154.257ZM199.456 153.832C200.526 153.143 201.457 152.05 202.151 150.657L199.571 149.401C199.464 149.615 199.372 149.727 199.195 149.841L199.456 153.832ZM202.142 150.674C202.828 149.312 203.166 147.926 203.083 146.661L199.72 148.827C199.731 148.992 199.708 149.129 199.58 149.383L202.142 150.674ZM203.083 146.661L202.909 143.991L199.546 146.157L199.72 148.827L203.083 146.661ZM221.026 126.785L221.156 128.781L222.935 127.636L222.698 125.592L221.026 126.785ZM218.798 128.22L217.143 129.527L217.432 131.18L218.928 130.216L218.798 128.22ZM215.594 140.539L214.487 142.711L214.492 142.713L214.498 142.716L215.594 140.539ZM219.319 136.203L219.189 134.207L217.694 135.17L217.634 137.045L219.319 136.203ZM221.547 134.768L223.233 133.809L223.204 131.621L221.417 132.772L221.547 134.768ZM211.903 144.892L210.802 147.066L210.807 147.069L210.812 147.072L211.903 144.892ZM210.902 129.381L212.179 130.035L212.183 130.026L210.902 129.381ZM220.896 124.789L218.668 126.224L218.928 130.216L221.156 128.781L220.896 124.789ZM220.453 126.913C220.265 125.834 219.863 124.887 219.071 124.488C218.247 124.073 217.235 124.366 216.245 125.004L216.505 128.995C216.679 128.883 216.778 128.85 216.822 128.841C216.86 128.833 216.871 128.839 216.877 128.842C216.892 128.85 217.04 128.939 217.143 129.527L220.453 126.913ZM216.245 125.004C215.176 125.692 214.252 126.784 213.558 128.162L216.121 129.453C216.241 129.214 216.341 129.101 216.505 128.995L216.245 125.004ZM213.558 128.162C212.864 129.539 212.536 130.932 212.619 132.2L215.982 130.034C215.969 129.839 216 129.692 216.121 129.453L213.558 128.162ZM212.619 132.2L213.14 140.183L216.503 138.017L215.982 130.034L212.619 132.2ZM213.14 140.183C213.222 141.438 213.695 142.298 214.487 142.711L216.701 138.367C216.556 138.292 216.514 138.193 216.503 138.017L213.14 140.183ZM214.498 142.716C215.313 143.127 216.303 142.981 217.373 142.292L217.113 138.3C216.936 138.414 216.827 138.431 216.691 138.362L214.498 142.716ZM217.373 142.292C218.36 141.657 219.325 140.681 220.031 139.289C220.713 137.946 220.965 136.582 221.004 135.361L217.634 137.045C217.613 137.7 217.49 137.957 217.479 137.978C217.475 137.987 217.465 138.006 217.428 138.047C217.385 138.095 217.289 138.187 217.113 138.3L217.373 142.292ZM219.45 138.199L221.677 136.764L221.417 132.772L219.189 134.207L219.45 138.199ZM219.861 135.728C219.882 137.263 219.598 138.267 219.27 138.917C218.959 139.536 218.394 140.257 217.287 140.97L217.548 144.961C219.243 143.869 220.768 142.321 221.833 140.208C222.882 138.125 223.262 135.933 223.233 133.809L219.861 135.728ZM217.287 140.97L215.038 142.418L215.299 146.41L217.548 144.961L217.287 140.97ZM215.038 142.418C214.263 142.918 213.612 143.018 212.995 142.712L210.812 147.072C212.096 147.708 213.622 147.49 215.299 146.41L215.038 142.418ZM213.005 142.718C212.393 142.404 212.086 141.821 212.026 140.901L208.663 143.067C208.793 145.057 209.526 146.413 210.802 147.066L213.005 142.718ZM212.026 140.901L211.505 132.918L208.142 135.084L208.663 143.067L212.026 140.901ZM211.505 132.918C211.444 131.979 211.656 131.065 212.178 130.035L209.625 128.727C208.517 130.913 208.011 133.078 208.142 135.084L211.505 132.918ZM212.183 130.026C212.714 128.972 213.321 128.265 214.082 127.774L213.822 123.783C212.145 124.863 210.718 126.557 209.621 128.735L212.183 130.026ZM214.082 127.774L216.331 126.326L216.07 122.334L213.822 123.783L214.082 127.774ZM216.331 126.326C217.445 125.608 218.057 125.574 218.42 125.759C218.801 125.953 219.186 126.529 219.355 127.978L222.698 125.592C222.465 123.591 221.846 122.032 220.619 121.408C219.374 120.774 217.773 121.238 216.07 122.334L216.331 126.326ZM239.333 120.531L239.463 122.527L241.144 121.444L241.014 119.448L239.333 120.531ZM230.358 126.312L230.228 124.316L228.546 125.399L228.677 127.395L230.358 126.312ZM231.305 130.42L230.198 132.592L230.203 132.594L230.208 132.597L231.305 130.42ZM237.258 124.649L237.128 122.653L235.446 123.736L235.576 125.732L237.258 124.649ZM239.507 123.201L241.192 122.358L241.267 119.987L239.377 121.205L239.507 123.201ZM227.614 134.773L226.512 136.947L226.517 136.95L226.522 136.952L227.614 134.773ZM226.613 119.262L227.889 119.916L227.894 119.907L226.613 119.262ZM237.416 112.316L236.31 114.488L236.315 114.49L236.32 114.493L237.416 112.316ZM230.184 123.642L228.502 124.725L228.633 126.721L230.314 125.638L230.184 123.642ZM234.682 120.745L234.812 122.741L236.493 121.658L236.363 119.663L234.682 120.745ZM233.713 116.651L232.617 118.828L232.622 118.83L232.627 118.833L233.713 116.651ZM239.202 118.536L230.228 124.316L230.488 128.308L239.463 122.527L239.202 118.536ZM228.677 127.395L228.851 130.064L232.214 127.898L232.039 125.229L228.677 127.395ZM228.851 130.064C228.933 131.319 229.406 132.179 230.198 132.592L232.412 128.248C232.267 128.173 232.225 128.073 232.214 127.898L228.851 130.064ZM230.208 132.597C231.023 133.008 232.014 132.862 233.084 132.173L232.823 128.181C232.646 128.295 232.538 128.312 232.402 128.243L230.208 132.597ZM233.084 132.173L235.333 130.724L235.072 126.733L232.823 128.181L233.084 132.173ZM235.333 130.724C236.335 130.079 237.375 129.098 238.111 127.637C238.848 126.176 239.017 124.755 238.939 123.566L235.576 125.732C235.614 126.306 235.498 126.447 235.549 126.346C235.6 126.245 235.556 126.421 235.072 126.733L235.333 130.724ZM237.388 126.645L239.637 125.196L239.377 121.205L237.128 122.653L237.388 126.645ZM237.822 124.044C237.771 125.65 237.46 126.724 237.104 127.431C236.775 128.084 236.235 128.766 235.247 129.402L235.507 133.394C237.153 132.333 238.619 130.801 239.666 128.721C240.687 126.696 241.124 124.52 241.192 122.358L237.822 124.044ZM235.247 129.402L230.749 132.299L231.009 136.291L235.507 133.394L235.247 129.402ZM230.749 132.299C229.973 132.798 229.323 132.899 228.706 132.593L226.522 136.952C227.807 137.589 229.333 137.37 231.009 136.291L230.749 132.299ZM228.716 132.599C228.103 132.285 227.797 131.702 227.737 130.782L224.374 132.947C224.504 134.938 225.237 136.294 226.512 136.947L228.716 132.599ZM227.737 130.782L227.216 122.799L223.853 124.964L224.374 132.947L227.737 130.782ZM227.216 122.799C227.155 121.86 227.367 120.946 227.889 119.916L225.336 118.608C224.228 120.793 223.722 122.959 223.853 124.964L227.216 122.799ZM227.894 119.907C228.425 118.853 229.032 118.145 229.793 117.655L229.532 113.664C227.855 114.744 226.429 116.438 225.331 118.616L227.894 119.907ZM229.793 117.655L234.291 114.758L234.03 110.767L229.532 113.664L229.793 117.655ZM234.291 114.758C235.057 114.265 235.699 114.17 236.31 114.488L238.523 110.144C237.245 109.478 235.716 109.681 234.03 110.767L234.291 114.758ZM236.32 114.493C236.938 114.805 237.245 115.385 237.304 116.301L240.667 114.135C240.537 112.139 239.797 110.786 238.513 110.139L236.32 114.493ZM237.304 116.301L237.651 121.614L241.014 119.448L240.667 114.135L237.304 116.301ZM230.314 125.638L234.812 122.741L234.551 118.75L230.053 121.647L230.314 125.638ZM236.363 119.663L236.19 117.018L232.827 119.184L233 121.828L236.363 119.663ZM236.19 117.018C236.107 115.739 235.62 114.868 234.8 114.469L232.627 118.833C232.772 118.903 232.815 118.999 232.827 119.184L236.19 117.018ZM234.81 114.474C234.004 114.068 233.023 114.197 231.955 114.885L232.216 118.876C232.368 118.778 232.472 118.755 232.617 118.828L234.81 114.474ZM231.955 114.885C230.887 115.573 229.963 116.665 229.269 118.043L231.831 119.334C231.952 119.095 232.052 118.982 232.216 118.876L231.955 114.885ZM229.269 118.043C228.575 119.42 228.247 120.813 228.33 122.081L231.693 119.915C231.68 119.72 231.711 119.572 231.831 119.334L229.269 118.043ZM228.33 122.081L228.502 124.725L231.865 122.559L231.693 119.915L228.33 122.081Z" fill="black"/>
<path d="M125.377 79.6118C126.396 80.3794 127.256 81.1812 127.956 82.0171C128.656 82.8531 129.133 83.7217 129.387 84.6229C129.641 85.5241 129.65 86.4726 129.415 87.4685C129.201 88.4496 128.69 89.4844 127.88 90.5729C128.696 91.0019 129.416 91.0038 130.04 90.5786C130.535 90.2413 130.982 89.6829 131.382 88.9034C131.802 88.1396 131.983 87.2259 131.923 86.1624C131.885 85.1145 131.489 83.952 130.735 82.6748C130.025 81.3986 128.785 80.0947 127.017 78.763C126.018 78.0111 125.069 77.4196 124.169 76.9886C123.289 76.5732 122.513 76.2514 121.841 76.023C121.501 75.2108 121.34 74.3801 121.36 73.5309C121.402 72.667 121.602 71.8145 121.961 70.9733C122.341 70.1478 122.868 69.3409 123.543 68.5528C124.239 67.7803 125.06 67.0714 126.007 66.4263C128.654 64.6227 131.476 63.491 134.472 63.0309C137.469 62.5709 140.443 62.6035 143.395 63.1286C146.389 63.6548 149.279 64.5654 152.064 65.8604C154.85 67.1554 157.366 68.6489 159.612 70.3408C161.63 71.8604 163.332 73.327 164.717 74.7406C166.102 76.1542 167.224 77.4932 168.084 78.7578C168.964 80.0077 169.614 81.1762 170.033 82.2634C170.494 83.3516 170.789 84.3297 170.917 85.1976C170.457 85.8391 169.88 86.4855 169.187 87.1366C168.494 87.7878 167.707 88.414 166.824 89.0152C166.243 89.4111 165.578 89.7898 164.828 90.1514C164.121 90.5139 163.372 90.83 162.582 91.0995C161.793 91.3691 160.983 91.5775 160.154 91.7248C159.324 91.872 158.518 91.9288 157.736 91.895C157.64 91.4831 157.409 90.939 157.044 90.2627C156.7 89.5718 156.231 88.8324 155.636 88.0444C155.083 87.2575 154.414 86.4451 153.629 85.6071C152.844 84.7692 151.973 83.9899 151.016 83.2693C149.706 82.2823 148.694 81.659 147.98 81.3993C147.287 81.1553 146.736 81.1726 146.327 81.4512C146.112 81.5978 145.96 81.7459 145.872 81.8956C146.396 82.1356 146.929 82.4289 147.471 82.7756C148.013 83.1222 148.513 83.4679 148.971 83.8125C150.76 85.1598 152.281 86.6449 153.534 88.2677C154.809 89.8759 155.584 91.5558 155.86 93.3072C156.179 95.0596 155.882 96.843 154.971 98.6573C154.06 100.472 152.335 102.244 149.795 103.974C147.794 105.338 145.484 106.315 142.865 106.905C140.247 107.496 137.449 107.642 134.47 107.343C131.513 107.061 128.439 106.29 125.251 105.031C122.083 103.788 118.939 101.991 115.819 99.6411C114.217 98.4348 112.784 97.2629 111.519 96.1253C110.233 95.0024 109.095 93.8678 108.106 92.7215C107.095 91.5899 106.223 90.4389 105.488 89.2683C104.775 88.0831 104.159 86.8471 103.639 85.5602C103.985 84.3394 104.521 83.1686 105.246 82.0479C105.972 80.9271 107.077 79.8608 108.562 78.8491C109.724 78.0573 111.019 77.4735 112.446 77.0976C113.895 76.7375 115.359 76.5901 116.84 76.6556C118.342 76.7063 119.828 76.9767 121.299 77.4668C122.769 77.9568 124.129 78.6718 125.377 79.6118Z" fill="black"/>
</g>
<path d="M56.3434 137.638L57.0949 113.65L66.45 118.792C67.728 119.494 68.807 120.621 69.687 122.172C70.5743 123.728 70.9952 125.23 70.9498 126.679L70.9076 128.028C70.8588 129.586 70.4297 130.596 69.6204 131.057C68.8183 131.523 67.6363 131.433 66.0742 130.786C67.6298 131.641 68.7777 132.818 69.5182 134.318C70.2662 135.814 70.6182 137.266 70.5741 138.673L70.5318 140.023C70.4866 141.464 69.9838 142.458 69.0231 143.006C68.0701 143.55 66.9619 143.474 65.6985 142.78L56.3434 137.638ZM61.4272 126.885L63.7715 128.173C64.4068 128.522 64.9628 128.561 65.4393 128.289C65.9234 128.013 66.1768 127.513 66.1995 126.788L66.2832 124.114C66.306 123.39 66.0917 122.641 65.6405 121.867C65.1968 121.09 64.6573 120.526 64.022 120.177L61.6777 118.889L61.4272 126.885ZM61.0937 137.529L63.438 138.818C64.0733 139.167 64.6293 139.206 65.1058 138.934C65.5896 138.666 65.8428 138.174 65.8652 137.458L65.949 134.784C66.0048 133.002 65.2513 131.681 63.6885 130.822L61.3442 129.533L61.0937 137.529ZM75.0207 147.904L75.7722 123.916L80.4388 126.48L79.6872 150.469L75.0207 147.904ZM89.6381 136.951L94.3265 139.528C95.6046 140.23 96.6834 141.361 97.5632 142.921C98.4505 144.476 98.8713 145.982 98.8256 147.44L98.5751 155.436C98.5299 156.877 98.0307 157.873 97.0774 158.426C96.1317 158.973 95.0198 158.896 93.7418 158.193L89.0533 155.617C87.7752 154.914 86.6925 153.789 85.8049 152.243C84.9249 150.691 84.5078 149.187 84.5534 147.729L84.8039 139.733C84.8501 138.259 85.3496 137.254 86.3024 136.719C87.2555 136.175 88.3673 136.252 89.6381 136.951ZM89.4705 142.298L89.22 150.294C89.1976 151.01 89.4045 151.755 89.8409 152.529C90.2845 153.307 90.8313 153.874 91.4813 154.231C92.1312 154.589 92.6908 154.629 93.1601 154.353C93.6366 154.082 93.8861 153.587 93.9085 152.871L94.159 144.875C94.182 144.142 93.968 143.385 93.517 142.603C93.0734 141.826 92.5339 141.262 91.8985 140.913C91.2559 140.56 90.6963 140.519 90.2198 140.791C89.7432 141.063 89.4935 141.565 89.4705 142.298ZM115.159 156.417L112.836 155.141C112.71 153.258 111.956 151.937 110.576 151.178C109.933 150.825 109.374 150.785 108.897 151.056C108.421 151.328 108.171 151.831 108.148 152.564L107.897 160.56C107.875 161.276 108.082 162.021 108.518 162.795C108.962 163.572 109.509 164.14 110.159 164.497C111.539 165.256 112.348 164.802 112.586 163.137L114.908 164.413C114.607 167.857 112.996 168.776 110.075 167.171L107.731 165.882C106.453 165.18 105.37 164.055 104.482 162.508C103.602 160.957 103.185 159.452 103.231 157.995L103.481 149.999C103.527 148.525 104.027 147.52 104.98 146.984C105.933 146.441 107.045 146.518 108.315 147.216L110.66 148.505C113.595 150.118 115.095 152.756 115.159 156.417ZM119.441 172.318L120.192 148.33L124.859 150.895L124.483 162.889L131.703 160.071L136.391 162.648L126.305 166.611L135.807 181.314L131.118 178.737L124.316 168.212L124.107 174.883L119.441 172.318Z" fill="black"/>
<path d="M56.3434 137.638L54.5907 136.675L54.528 138.674L56.2808 139.637L56.3434 137.638ZM57.0949 113.65L57.1576 111.651L55.4048 110.688L55.3422 112.687L57.0949 113.65ZM69.687 122.172L68.3986 122.896L68.4034 122.905L69.687 122.172ZM69.6204 131.057L68.4253 128.963L68.4193 128.966L69.6204 131.057ZM66.0742 130.786L65.9321 128.688L66.0116 132.785L66.0742 130.786ZM69.5182 134.318L68.1242 134.843L68.1287 134.852L68.1333 134.861L69.5182 134.318ZM69.0231 143.006L67.8281 140.911L67.8281 140.911L69.0231 143.006ZM61.4272 126.885L59.6745 125.921L59.6119 127.92L61.3646 128.884L61.4272 126.885ZM65.6405 121.867L64.3569 122.6L64.3663 122.616L64.376 122.633L65.6405 121.867ZM61.6777 118.889L61.7404 116.89L59.9877 115.926L59.925 117.925L61.6777 118.889ZM61.0937 137.529L59.341 136.566L59.2784 138.565L61.0311 139.528L61.0937 137.529ZM65.1058 138.934L63.9209 136.834L63.9158 136.836L63.9107 136.839L65.1058 138.934ZM61.3442 129.533L61.4069 127.534L59.6542 126.571L59.5915 128.57L61.3442 129.533ZM58.0961 138.602L58.8476 114.613L55.3422 112.687L54.5907 136.675L58.0961 138.602ZM57.0323 115.649L66.3874 120.791L66.5126 116.793L57.1576 111.651L57.0323 115.649ZM66.3874 120.791C67.1907 121.232 67.8308 121.895 68.3986 122.896L70.9754 121.448C69.7832 119.347 68.2653 117.756 66.5126 116.793L66.3874 120.791ZM68.4034 122.905C68.9823 123.919 69.2255 124.811 69.1971 125.716L72.7025 127.642C72.765 125.649 72.1663 123.536 70.9706 121.44L68.4034 122.905ZM69.1971 125.716L69.1549 127.065L72.6603 128.992L72.7025 127.642L69.1971 125.716ZM69.1549 127.065C69.1185 128.225 68.8176 128.739 68.4253 128.963L70.8154 133.152C72.0418 132.452 72.599 130.947 72.6603 128.992L69.1549 127.065ZM68.4193 128.966C68.0074 129.205 67.2621 129.239 65.9321 128.688L66.2163 132.884C68.0104 133.626 69.6292 133.841 70.8214 133.149L68.4193 128.966ZM66.0116 132.785C67.1994 133.438 67.7865 134.159 68.1242 134.843L70.9121 133.794C69.7689 131.478 68.0601 129.844 66.1369 128.787L66.0116 132.785ZM68.1333 134.861C68.6254 135.845 68.851 136.764 68.8214 137.71L72.3268 139.637C72.3853 137.767 71.907 135.783 70.9031 133.775L68.1333 134.861ZM68.8214 137.71L68.7791 139.059L72.2845 140.986L72.3268 139.637L68.8214 137.71ZM68.7791 139.059C68.7512 139.948 68.4628 140.549 67.8281 140.911L70.2182 145.101C71.5048 144.367 72.222 142.979 72.2845 140.986L68.7791 139.059ZM67.8281 140.911C67.204 141.267 66.5443 141.212 65.7611 140.781L65.6358 144.779C67.3795 145.737 68.9361 145.832 70.2182 145.101L67.8281 140.911ZM65.7611 140.781L56.406 135.639L56.2808 139.637L65.6358 144.779L65.7611 140.781ZM61.3646 128.884L63.7088 130.172L63.8341 126.174L61.4899 124.886L61.3646 128.884ZM63.7088 130.172C64.8214 130.784 65.8266 130.845 66.6344 130.384L64.2442 126.194C64.099 126.277 63.9922 126.261 63.8341 126.174L63.7088 130.172ZM66.6344 130.384C67.4436 129.922 67.9121 129.029 67.9522 127.751L64.4468 125.825C64.4414 125.996 64.4032 126.104 64.2442 126.194L66.6344 130.384ZM67.9522 127.751L68.036 125.078L64.5305 123.151L64.4468 125.825L67.9522 127.751ZM68.036 125.078C68.0761 123.797 67.6762 122.424 66.905 121.102L64.376 122.633C64.5072 122.858 64.5358 122.982 64.5305 123.151L68.036 125.078ZM66.9241 121.135C66.1721 119.817 65.1972 118.79 64.0846 118.178L63.9594 122.176C64.1175 122.263 64.2216 122.363 64.3569 122.6L66.9241 121.135ZM64.0846 118.178L61.7404 116.89L61.6151 120.888L63.9594 122.176L64.0846 118.178ZM59.925 117.925L59.6745 125.921L63.1799 127.848L63.4304 119.852L59.925 117.925ZM61.0311 139.528L63.3753 140.817L63.5006 136.819L61.1564 135.53L61.0311 139.528ZM63.3753 140.817C64.4879 141.428 65.4931 141.49 66.3009 141.029L63.9107 136.839C63.7655 136.922 63.6587 136.906 63.5006 136.819L63.3753 140.817ZM66.2907 141.034C67.1039 140.584 67.5779 139.699 67.6179 138.421L64.1125 136.494C64.1076 136.649 64.0754 136.748 63.9209 136.834L66.2907 141.034ZM67.6179 138.421L67.7017 135.747L64.1963 133.821L64.1125 136.494L67.6179 138.421ZM67.7017 135.747C67.7392 134.548 67.5149 133.136 66.7094 131.724C65.9039 130.312 64.8027 129.401 63.7511 128.823L63.6259 132.821C64.1371 133.102 64.1941 133.28 64.1421 133.189C64.0901 133.098 64.2145 133.238 64.1963 133.821L67.7017 135.747ZM63.7511 128.823L61.4069 127.534L61.2816 131.532L63.6259 132.821L63.7511 128.823ZM59.5915 128.57L59.341 136.566L62.8464 138.493L63.097 130.497L59.5915 128.57ZM75.0207 147.904L73.268 146.941L73.2053 148.94L74.958 149.903L75.0207 147.904ZM75.7722 123.916L75.8348 121.917L74.0821 120.953L74.0195 122.952L75.7722 123.916ZM80.4388 126.48L82.1915 127.444L82.2541 125.445L80.5014 124.481L80.4388 126.48ZM79.6872 150.469L79.6246 152.468L81.3773 153.431L81.4399 151.432L79.6872 150.469ZM76.7734 148.867L77.5249 124.879L74.0195 122.952L73.268 146.941L76.7734 148.867ZM75.7096 125.915L80.3762 128.48L80.5014 124.481L75.8348 121.917L75.7096 125.915ZM78.6861 125.517L77.9345 149.505L81.4399 151.432L82.1915 127.444L78.6861 125.517ZM79.7499 148.47L75.0833 145.905L74.958 149.903L79.6246 152.468L79.7499 148.47ZM97.5632 142.921L96.2701 143.636L96.2748 143.645L96.2795 143.653L97.5632 142.921ZM97.0774 158.426L95.8773 156.334L95.8772 156.334L97.0774 158.426ZM85.8049 152.243L84.5165 152.967L84.5213 152.975L84.5261 152.983L85.8049 152.243ZM86.3024 136.719L87.4924 138.816L87.4975 138.813L86.3024 136.719ZM89.8409 152.529L88.5477 153.245L88.5525 153.253L88.5572 153.261L89.8409 152.529ZM93.1601 154.353L91.965 152.259L91.9599 152.262L91.9548 152.265L93.1601 154.353ZM93.517 142.603L92.2334 143.335L92.2381 143.344L92.2429 143.352L93.517 142.603ZM89.5754 138.95L94.2639 141.527L94.3892 137.529L89.7007 134.952L89.5754 138.95ZM94.2639 141.527C95.0627 141.966 95.7013 142.628 96.2701 143.636L98.8562 142.205C97.6655 140.094 96.1464 138.494 94.3892 137.529L94.2639 141.527ZM96.2795 143.653C96.8563 144.664 97.1016 145.56 97.0729 146.477L100.578 148.403C100.641 146.405 100.045 144.288 98.8468 142.188L96.2795 143.653ZM97.0729 146.477L96.8224 154.473L100.328 156.399L100.578 148.403L97.0729 146.477ZM96.8224 154.473C96.7944 155.366 96.506 155.97 95.8773 156.334L98.2775 160.517C99.5554 159.777 100.266 158.387 100.328 156.399L96.8224 154.473ZM95.8772 156.334C95.267 156.687 94.6077 156.636 93.8044 156.194L93.6791 160.193C95.4318 161.156 96.9963 161.259 98.2776 160.517L95.8772 156.334ZM93.8044 156.194L89.1159 153.618L88.9906 157.616L93.6791 160.193L93.8044 156.194ZM89.1159 153.618C88.3076 153.173 87.6597 152.506 87.0838 151.502L84.5261 152.983C85.7252 155.073 87.2429 156.655 88.9906 157.616L89.1159 153.618ZM87.0933 151.519C86.5223 150.512 86.2773 149.614 86.3061 148.693L82.8007 146.766C82.7383 148.759 83.3276 150.871 84.5165 152.967L87.0933 151.519ZM86.3061 148.693L86.5567 140.697L83.0512 138.77L82.8007 146.766L86.3061 148.693ZM86.5567 140.697C86.5861 139.757 86.882 139.159 87.4924 138.816L85.1125 134.621C83.8173 135.349 83.1142 136.761 83.0512 138.77L86.5567 140.697ZM87.4975 138.813C88.1193 138.459 88.782 138.514 89.5754 138.95L89.7007 134.952C87.9527 133.991 86.3917 133.891 85.1073 134.624L87.4975 138.813ZM87.7178 141.335L87.4673 149.331L90.9727 151.258L91.2232 143.261L87.7178 141.335ZM87.4673 149.331C87.4279 150.588 87.8101 151.937 88.5477 153.245L91.134 151.814C90.999 151.574 90.9672 151.433 90.9727 151.258L87.4673 149.331ZM88.5572 153.261C89.3174 154.594 90.3033 155.617 91.4186 156.23L91.5439 152.232C91.3594 152.131 91.2516 152.019 91.1245 151.797L88.5572 153.261ZM91.4186 156.23C92.5347 156.844 93.5521 156.92 94.3653 156.442L91.9548 152.265C91.8296 152.338 91.7278 152.333 91.5439 152.232L91.4186 156.23ZM94.3551 156.448C95.1584 155.99 95.6215 155.102 95.6612 153.834L92.1558 151.908C92.1506 152.073 92.1148 152.173 91.965 152.259L94.3551 156.448ZM95.6612 153.834L95.9117 145.838L92.4063 143.912L92.1558 151.908L95.6612 153.834ZM95.9117 145.838C95.9518 144.558 95.5576 143.183 94.7912 141.854L92.2429 143.352C92.3783 143.587 92.4121 143.727 92.4063 143.912L95.9117 145.838ZM94.8007 141.871C94.0486 140.553 93.0738 139.525 91.9612 138.914L91.8359 142.912C91.994 142.999 92.0982 143.098 92.2334 143.335L94.8007 141.871ZM91.9612 138.914C90.8472 138.302 89.8369 138.233 89.0247 138.696L91.4148 142.886C91.5557 142.805 91.6646 142.818 91.8359 142.912L91.9612 138.914ZM89.0247 138.696C88.2125 139.16 87.7576 140.064 87.7178 141.335L91.2232 143.261C91.2294 143.066 91.274 142.966 91.4148 142.886L89.0247 138.696ZM115.159 156.417L115.096 158.416L116.95 159.435L116.912 157.267L115.159 156.417ZM112.836 155.141L111.088 154.416L111.214 156.282L112.774 157.14L112.836 155.141ZM108.518 162.795L107.225 163.51L107.23 163.519L107.235 163.527L108.518 162.795ZM112.586 163.137L112.648 161.138L111.09 160.281L110.852 161.946L112.586 163.137ZM114.908 164.413L116.654 165.496L116.834 163.438L114.971 162.414L114.908 164.413ZM104.482 162.508L103.194 163.232L103.199 163.24L103.203 163.249L104.482 162.508ZM104.98 146.984L106.17 149.082L106.175 149.079L104.98 146.984ZM115.221 154.418L112.899 153.142L112.774 157.14L115.096 158.416L115.221 154.418ZM114.584 155.865C114.502 154.647 114.199 153.301 113.46 152.006C112.691 150.659 111.671 149.747 110.638 149.179L110.513 153.177C110.695 153.277 110.794 153.362 110.839 153.405C110.876 153.442 110.887 153.46 110.892 153.47C110.907 153.495 111.043 153.751 111.088 154.416L114.584 155.865ZM110.638 149.179C109.524 148.567 108.514 148.498 107.702 148.962L110.092 153.151C110.233 153.071 110.342 153.083 110.513 153.177L110.638 149.179ZM107.702 148.962C106.89 149.425 106.435 150.33 106.395 151.6L109.901 153.527C109.907 153.332 109.951 153.231 110.092 153.151L107.702 148.962ZM106.395 151.6L106.145 159.596L109.65 161.523L109.901 153.527L106.395 151.6ZM106.145 159.596C106.105 160.853 106.487 162.202 107.225 163.51L109.811 162.079C109.676 161.84 109.644 161.699 109.65 161.523L106.145 159.596ZM107.235 163.527C107.995 164.859 108.981 165.883 110.096 166.496L110.221 162.498C110.037 162.396 109.929 162.285 109.802 162.062L107.235 163.527ZM110.096 166.496C111.124 167.061 112.164 167.287 112.99 166.824C113.786 166.378 114.164 165.411 114.319 164.328L110.852 161.946C110.769 162.528 110.624 162.621 110.612 162.628C110.606 162.631 110.595 162.637 110.555 162.632C110.507 162.625 110.404 162.599 110.221 162.498L110.096 166.496ZM112.523 165.136L114.845 166.412L114.971 162.414L112.648 161.138L112.523 165.136ZM113.162 163.33C113.036 164.774 112.662 165.372 112.279 165.591C111.914 165.799 111.291 165.806 110.137 165.172L110.012 169.17C111.78 170.141 113.423 170.491 114.669 169.78C115.897 169.079 116.479 167.496 116.654 165.496L113.162 163.33ZM110.137 165.172L107.793 163.883L107.668 167.881L110.012 169.17L110.137 165.172ZM107.793 163.883C106.985 163.439 106.337 162.771 105.761 161.767L103.203 163.249C104.402 165.339 105.92 166.921 107.668 167.881L107.793 163.883ZM105.771 161.784C105.2 160.778 104.955 159.88 104.983 158.958L101.478 157.032C101.416 159.025 102.005 161.136 103.194 163.232L105.771 161.784ZM104.983 158.958L105.234 150.962L101.729 149.035L101.478 157.032L104.983 158.958ZM105.234 150.962C105.263 150.022 105.559 149.425 106.17 149.082L103.79 144.887C102.495 145.614 101.791 147.027 101.729 149.035L105.234 150.962ZM106.175 149.079C106.797 148.724 107.459 148.779 108.253 149.215L108.378 145.217C106.63 144.257 105.069 144.157 103.785 144.89L106.175 149.079ZM108.253 149.215L110.597 150.504L110.722 146.506L108.378 145.217L108.253 149.215ZM110.597 150.504C111.758 151.142 112.361 151.825 112.7 152.42C113.055 153.046 113.378 154.03 113.405 155.567L116.912 157.267C116.875 155.143 116.417 152.978 115.273 150.966C114.111 148.923 112.497 147.481 110.722 146.506L110.597 150.504ZM119.441 172.318L117.688 171.355L117.625 173.354L119.378 174.317L119.441 172.318ZM120.192 148.33L120.255 146.331L118.502 145.368L118.44 147.367L120.192 148.33ZM124.859 150.895L126.612 151.858L126.674 149.859L124.922 148.896L124.859 150.895ZM124.483 162.889L122.73 161.926L122.597 166.197L125.558 165.041L124.483 162.889ZM131.703 160.071L131.766 158.072L131.13 157.723L130.628 157.919L131.703 160.071ZM136.391 162.648L137.468 164.799L141.28 163.301L136.454 160.649L136.391 162.648ZM126.305 166.611L125.229 164.459L123.572 165.11L125.134 167.528L126.305 166.611ZM135.807 181.314L135.744 183.313L140.58 185.971L136.978 180.396L135.807 181.314ZM131.118 178.737L129.947 179.654L130.42 180.387L131.056 180.736L131.118 178.737ZM124.316 168.212L125.487 167.294L122.698 162.977L122.564 167.248L124.316 168.212ZM124.107 174.883L124.045 176.882L125.797 177.846L125.86 175.847L124.107 174.883ZM121.194 173.282L121.945 149.294L118.44 147.367L117.688 171.355L121.194 173.282ZM120.13 150.329L124.796 152.894L124.922 148.896L120.255 146.331L120.13 150.329ZM123.106 149.932L122.73 161.926L126.236 163.853L126.612 151.858L123.106 149.932ZM125.558 165.041L132.778 162.223L130.628 157.919L123.408 160.737L125.558 165.041ZM131.64 162.07L136.329 164.647L136.454 160.649L131.766 158.072L131.64 162.07ZM135.315 160.496L125.229 164.459L127.382 168.762L137.468 164.799L135.315 160.496ZM125.134 167.528L134.636 182.231L136.978 180.396L127.476 165.693L125.134 167.528ZM135.869 179.315L131.181 176.738L131.056 180.736L135.744 183.313L135.869 179.315ZM132.289 177.819L125.487 167.294L123.145 169.129L129.947 179.654L132.289 177.819ZM122.564 167.248L122.355 173.92L125.86 175.847L126.069 169.175L122.564 167.248ZM124.17 172.884L119.503 170.319L119.378 174.317L124.045 176.882L124.17 172.884Z" fill="black"/>
<defs>
<clipPath id="clip0_115_3">
<rect width="311" height="253" fill="white"/>
</clipPath>
</defs>
</svg>
