<svg width="258" height="222" viewBox="0 0 258 222" fill="none" xmlns="http://www.w3.org/2000/svg">
<rect x="20" width="218" height="218" rx="109" fill="#E84115"/>
<path d="M131.407 26.7897L234.719 88.5064L128.904 149.289L25.9053 90.2893L131.407 26.7897Z" fill="black"/>
<path d="M25.9053 90.2893L128.904 149.289L127.905 193.791L24.9059 134.793L25.9053 90.2893Z" fill="black"/>
<path d="M128.904 149.289L234.719 88.5064L233.219 129.506L127.905 193.791L128.904 149.289Z" fill="black"/>
<line x1="26.2446" y1="90.3881" x2="129.358" y2="148.185" stroke="white"/>
<path d="M128.744 148.395L234 87.4995" stroke="white"/>
<path d="M234.5 88.0001L131.742 26.2524" stroke="white"/>
<line x1="132.259" y1="26.2523" x2="26.2586" y2="90.2523" stroke="#FDFDFD"/>
<line x1="26.5" y1="89.8353" x2="25.5" y2="135.011" stroke="white"/>
<path d="M25.0001 135L128 194" stroke="white"/>
<line x1="233.5" y1="128.988" x2="234.5" y2="86.9881" stroke="white"/>
<path d="M233.5 129L128 194" stroke="white"/>
<line x1="128.5" y1="148.011" x2="127.5" y2="194.187" stroke="white"/>
<path d="M37.1357 132.974L37.895 108.736L42.044 111.017C44.5361 112.387 46.1953 113.521 47.0214 114.42C47.857 115.313 48.4716 116.297 48.8651 117.371C49.2586 118.445 49.4383 119.524 49.4044 120.607C49.3777 121.46 49.229 122.205 48.9584 122.84C48.6881 123.464 48.3011 123.961 47.7974 124.33C47.294 124.689 46.5725 124.896 45.6329 124.952C47.2975 126.65 48.4089 128.225 48.9671 129.676C49.5343 131.131 49.8004 132.421 49.7651 133.546C49.7315 134.618 49.4433 135.519 48.9005 136.248C48.3667 136.982 47.635 137.368 46.7051 137.408C45.7753 137.448 44.3062 136.916 42.2979 135.812L37.1357 132.974ZM40.319 121.173L43.2219 122.769C44.1762 122.838 44.8755 122.746 45.3199 122.492C45.7738 122.233 46.1151 121.859 46.344 121.371C46.5823 120.877 46.7129 120.266 46.7357 119.537C46.7716 118.392 46.5017 117.375 45.9259 116.486C45.3593 115.603 44.2225 114.692 42.5154 113.754L40.5847 112.693L40.319 121.173ZM39.9775 132.074L42.5929 133.512C44.0534 134.314 45.1429 134.516 45.8611 134.116C46.5888 133.711 46.9699 132.957 47.0045 131.854C47.03 131.041 46.8616 130.192 46.4994 129.304C46.1375 128.406 45.5611 127.539 44.7702 126.702C43.9796 125.854 42.7262 124.959 41.01 124.015L40.2432 123.594L39.9775 132.074ZM57.8532 144.361L58.5666 121.591L53.9931 119.078L54.0694 116.641L61.1898 120.555L60.4759 143.341L65.2548 145.967L65.179 148.388L57.8532 144.361ZM76.8713 155.307C74.6804 154.103 72.955 152.27 71.6949 149.809C70.4352 147.337 69.8469 144.774 69.9301 142.119C70.0133 139.464 70.7394 137.628 72.1084 136.612C73.4774 135.596 75.2573 135.69 77.4482 136.894C79.6299 138.093 81.3508 139.923 82.6109 142.385C83.871 144.846 84.4594 147.404 84.3762 150.059C84.293 152.714 83.5668 154.555 82.1975 155.581C80.8285 156.597 79.0531 156.506 76.8713 155.307ZM76.9472 152.886C78.3073 153.634 79.408 153.624 80.2492 152.858C81.0903 152.092 81.544 150.652 81.6102 148.539C81.6761 146.435 81.3263 144.559 80.5608 142.91C79.7954 141.261 78.7325 140.062 77.3724 139.315C76.003 138.562 74.8978 138.569 74.0567 139.335C73.2155 140.101 72.762 141.536 72.6961 143.639C72.6299 145.753 72.9795 147.634 73.745 149.283C74.5105 150.933 75.5779 152.134 76.9472 152.886ZM100.317 167.193C98.5896 166.91 96.9544 166.345 95.4117 165.497C93.8781 164.654 92.5259 163.503 91.3551 162.044C90.1938 160.58 89.3015 158.977 88.6782 157.237C88.0552 155.486 87.7712 153.731 87.8264 151.971C87.9092 149.326 88.7312 147.544 90.2922 146.622C91.8624 145.706 93.7155 145.835 95.8516 147.009C97.4309 147.877 99.0908 149.134 100.831 150.779L100.744 153.574C98.9928 151.669 97.4144 150.33 96.0085 149.558C95.0774 149.046 94.1928 148.83 93.3545 148.909C92.5166 148.978 91.8566 149.447 91.3744 150.315C90.8922 151.183 90.6326 152.205 90.5958 153.382C90.5465 154.954 90.9286 156.689 91.742 158.587C92.5646 160.49 93.8978 161.949 95.7418 162.962C96.2987 163.268 96.8477 163.527 97.3889 163.74C97.9304 163.943 98.9357 164.161 100.405 164.397L100.317 167.193ZM104.957 170.251L105.747 145.045L108.294 146.445L107.798 162.281L115.404 158.248L118.8 160.114L111.207 164.155L118.445 177.664L114.939 175.738L107.798 162.281L107.504 171.651L104.957 170.251Z" fill="white"/>
<path d="M108.811 46.7021C109.306 46.3648 110.24 46.2807 111.612 46.4498C113.027 46.6199 114.742 47.0778 116.757 47.8235C118.772 48.5692 121.023 49.6164 123.511 50.9651C126.019 52.3294 128.615 54.022 131.299 56.043C134.606 58.5339 137.081 60.8912 138.722 63.115C140.385 65.3242 141.374 67.3656 141.689 69.2394C142.026 71.1288 141.774 72.8373 140.933 74.3651C140.134 75.8938 138.917 77.2153 137.282 78.3297C136.657 78.7549 135.971 79.1483 135.221 79.5099C134.493 79.8567 133.734 80.1498 132.945 80.389C132.156 80.6283 131.337 80.7985 130.487 80.8998C129.68 81.002 128.907 81.0065 128.168 80.9131C127.887 80.2692 127.53 79.6917 127.098 79.1808C126.687 78.6551 126.273 78.2357 125.857 77.9224C125.42 77.5934 124.981 77.3857 124.538 77.2993C124.096 77.213 123.594 77.3604 123.035 77.7417C124.593 79.0076 125.653 80.2997 126.214 81.6178C126.776 82.936 126.947 84.2222 126.726 85.4763C126.528 86.7158 125.981 87.9091 125.085 89.0562C124.211 90.1886 123.097 91.2167 121.741 92.1405C119.416 93.724 116.979 94.7132 114.429 95.108C111.879 95.5027 109.203 95.371 106.403 94.7129C103.645 94.0558 100.739 92.902 97.6872 91.2517C94.6557 89.617 91.4862 87.5542 88.1786 85.0633C85.8071 83.2774 83.8011 81.705 82.1606 80.3461C80.4986 79.0018 79.1295 77.801 78.0536 76.7438C76.1498 74.8779 75.2586 73.1726 75.3799 71.6278C75.5435 70.084 76.8198 68.4984 79.2086 66.8708L108.811 46.7021ZM113.326 67.9298C113.346 68.0061 113.407 68.0986 113.51 68.2073C113.656 68.317 113.75 68.3875 113.791 68.4188C114.29 68.7948 114.805 68.9511 115.336 68.8878C115.867 68.8246 116.498 68.5436 117.23 68.0451L117.424 67.9131C118.177 67.3999 118.632 66.9555 118.789 66.5799C118.967 66.22 118.817 65.8599 118.339 65.4996C118.235 65.4212 118.099 65.3346 117.932 65.2396C117.765 65.1446 117.618 65.0804 117.492 65.0471C117.34 65.18 117.168 65.3125 116.974 65.4445C116.781 65.5764 116.576 65.7157 116.361 65.8624L113.326 67.9298ZM101.156 76.2217C101.175 76.298 101.237 76.3905 101.34 76.4991C101.486 76.6088 101.579 76.6793 101.621 76.7106C102.12 77.0866 102.603 77.265 103.069 77.2457C103.557 77.2117 104.167 76.9455 104.898 76.4469L105.512 76.029C106.265 75.5158 106.731 75.0641 106.91 74.6738C107.109 74.2992 106.97 73.9318 106.491 73.5715C106.387 73.4931 106.252 73.4065 106.084 73.3115C105.917 73.2165 105.771 73.1523 105.644 73.119C105.493 73.2519 105.32 73.3844 105.127 73.5164C104.933 73.6483 104.729 73.7876 104.513 73.9343L101.156 76.2217ZM137.129 95.4867C138.148 96.2543 139.008 97.0561 139.708 97.892C140.408 98.728 140.885 99.5965 141.139 100.498C141.393 101.399 141.402 102.348 141.167 103.343C140.953 104.325 140.442 105.359 139.632 106.448C140.448 106.877 141.168 106.879 141.792 106.453C142.287 106.116 142.734 105.558 143.134 104.778C143.554 104.014 143.735 103.101 143.675 102.037C143.637 100.989 143.241 99.8269 142.487 98.5497C141.777 97.2735 140.537 95.9695 138.769 94.6379C137.77 93.886 136.821 93.2945 135.921 92.8635C135.041 92.4481 134.265 92.1263 133.593 91.8979C133.253 91.0857 133.092 90.255 133.112 89.4057C133.154 88.5419 133.354 87.6894 133.713 86.8482C134.092 86.0227 134.62 85.2158 135.295 84.4276C135.991 83.6551 136.812 82.9463 137.759 82.3011C140.406 80.4976 143.228 79.3658 146.224 78.9058C149.221 78.4458 152.195 78.4783 155.147 79.0035C158.141 79.5297 161.031 80.4402 163.816 81.7353C166.602 83.0303 169.118 84.5238 171.364 86.2157C173.382 87.7353 175.084 89.2019 176.469 90.6155C177.854 92.0291 178.976 93.3681 179.836 94.6327C180.716 95.8826 181.366 97.0511 181.785 98.1383C182.246 99.2265 182.541 100.205 182.668 101.072C182.209 101.714 181.632 102.36 180.939 103.012C180.246 103.663 179.459 104.289 178.576 104.89C177.995 105.286 177.33 105.665 176.58 106.026C175.873 106.389 175.124 106.705 174.334 106.974C173.545 107.244 172.735 107.452 171.906 107.6C171.076 107.747 170.27 107.804 169.488 107.77C169.392 107.358 169.161 106.814 168.796 106.138C168.452 105.447 167.983 104.707 167.388 103.919C166.835 103.132 166.166 102.32 165.381 101.482C164.596 100.644 163.725 99.8648 162.768 99.1442C161.458 98.1572 160.446 97.5339 159.732 97.2742C159.039 97.0302 158.488 97.0475 158.079 97.3261C157.864 97.4727 157.712 97.6208 157.624 97.7705C158.148 98.0105 158.681 98.3038 159.223 98.6505C159.765 98.9971 160.265 99.3428 160.723 99.6874C162.512 101.035 164.033 102.52 165.286 104.143C166.561 105.751 167.336 107.431 167.612 109.182C167.931 110.935 167.634 112.718 166.723 114.532C165.812 116.347 164.087 118.119 161.547 119.849C159.546 121.213 157.236 122.19 154.617 122.78C151.999 123.37 149.201 123.517 146.222 123.218C143.265 122.936 140.191 122.165 137.003 120.906C133.835 119.663 130.691 117.866 127.571 115.516C125.969 114.31 124.536 113.138 123.271 112C121.985 110.877 120.847 109.743 119.858 108.596C118.847 107.465 117.975 106.314 117.24 105.143C116.527 103.958 115.911 102.722 115.391 101.435C115.737 100.214 116.273 99.0435 116.998 97.9227C117.724 96.802 118.829 95.7357 120.314 94.724C121.476 93.9322 122.771 93.3484 124.198 92.9725C125.647 92.6124 127.111 92.465 128.592 92.5304C130.094 92.5812 131.58 92.8516 133.051 93.3417C134.521 93.8317 135.881 94.5467 137.129 95.4867Z" fill="white"/>
<path d="M144.222 169.595L144.114 166.628C146.297 166.522 148.262 165.941 150.01 164.885C150.741 164.444 151.435 163.859 152.092 163.133C152.748 162.395 153.235 161.617 153.551 160.799C153.876 159.974 154.026 159.203 153.999 158.485C153.969 157.642 153.704 156.998 153.205 156.555C152.705 156.102 151.788 155.826 150.454 155.727L149.057 155.63L147.645 155.541C145.159 155.331 143.871 153.982 143.78 151.494C143.713 149.672 144.197 147.816 145.23 145.925C146.272 144.019 147.943 142.371 150.244 140.981C151.724 140.086 153.164 139.472 154.564 139.136L154.662 141.838C153.113 142.072 151.616 142.625 150.171 143.498C149.021 144.193 148.103 145.11 147.415 146.249C146.737 147.382 146.416 148.448 146.452 149.448C146.489 150.437 146.79 151.095 147.358 151.422C147.926 151.749 148.644 151.933 149.511 151.973L150.581 152.076L151.911 152.214L153.035 152.301C155.368 152.551 156.579 153.904 156.669 156.361C156.738 158.235 156.213 160.196 155.094 162.244C153.975 164.293 152.127 166.096 149.551 167.653C148.73 168.148 147.943 168.539 147.188 168.825C146.442 169.116 145.454 169.373 144.222 169.595ZM162.47 145.275C163.183 143.355 164.057 141.704 165.091 140.324C166.125 138.944 167.087 137.984 167.979 137.446C169.227 136.692 170.374 136.643 171.418 137.299C172.463 137.955 173.032 139.563 173.125 142.124C173.199 144.144 172.931 146.152 172.32 148.149C171.718 150.129 170.882 151.917 169.81 153.512C168.738 155.096 167.386 156.381 165.754 157.367C165.291 157.647 164.576 158.02 163.609 158.488C163.465 158.553 163.25 158.656 162.964 158.797L163.211 165.574L160.724 167.077L159.839 142.859L162.326 141.356L162.47 145.275ZM162.596 148.726L162.869 156.205C163.779 155.932 164.613 155.566 165.371 155.108C166.878 154.198 168.119 152.746 169.094 150.752C170.078 148.743 170.526 146.541 170.438 144.147C170.375 142.408 170.046 141.272 169.452 140.737C168.859 140.202 168.205 140.15 167.492 140.581C166.717 141.049 165.877 142.025 164.975 143.506C164.081 144.983 163.288 146.723 162.596 148.726ZM186.785 140.398C186.081 142.313 185.207 143.963 184.164 145.349C183.13 146.729 182.167 147.688 181.276 148.227C180.028 148.981 178.881 149.03 177.837 148.374C176.801 147.712 176.237 146.101 176.143 143.54C176.069 141.521 176.333 139.521 176.935 137.54C177.537 135.549 178.374 133.761 179.446 132.177C180.517 130.582 181.869 129.292 183.5 128.306C183.973 128.021 184.688 127.647 185.646 127.185C185.79 127.12 186.005 127.016 186.291 126.875L188.792 125.364L189.242 137.684C189.319 139.787 189.569 141.381 189.991 142.466L187.397 144.034C187.165 143.195 186.962 141.983 186.785 140.398ZM186.659 136.947L186.386 129.467C185.493 129.73 184.668 130.09 183.91 130.548C182.377 131.475 181.123 132.94 180.148 134.944C179.182 136.943 178.743 139.134 178.83 141.518C178.893 143.246 179.217 144.385 179.803 144.936C180.396 145.471 181.05 145.523 181.763 145.092C182.538 144.623 183.378 143.648 184.28 142.167C185.183 140.685 185.976 138.945 186.659 136.947ZM206.114 132.213C204.471 133.876 202.896 135.163 201.389 136.074C199.891 136.979 198.544 137.383 197.347 137.287C196.158 137.176 195.213 136.63 194.512 135.649C193.811 134.658 193.428 133.282 193.364 131.523C193.267 128.879 193.922 126.238 195.329 123.6C196.745 120.957 198.497 119.005 200.583 117.745C202.125 116.813 203.769 116.165 205.515 115.802L205.617 118.597C203.844 118.721 202.272 119.198 200.899 120.028C199.989 120.577 199.143 121.36 198.36 122.376C197.577 123.381 196.987 124.572 196.591 125.95C196.195 127.328 196.018 128.605 196.061 129.781C196.118 131.353 196.592 132.599 197.482 133.519C198.381 134.433 199.731 134.346 201.532 133.258C202.076 132.929 202.61 132.565 203.133 132.163C203.655 131.752 204.615 130.837 206.012 129.418L206.114 132.213ZM222.392 121.707C220.444 124.012 218.583 125.7 216.809 126.772C215.463 127.586 214.245 127.922 213.156 127.783C212.066 127.643 211.174 127.044 210.479 125.985C209.793 124.91 209.42 123.545 209.359 121.89C209.301 120.297 209.548 118.584 210.101 116.75C210.653 114.915 211.459 113.264 212.517 111.795C213.574 110.315 214.772 109.171 216.109 108.363C217.883 107.291 219.332 107.171 220.456 108.003C221.589 108.829 222.212 110.783 222.324 113.864L222.347 114.489L212.05 120.711C212.094 121.918 212.348 122.892 212.813 123.633C213.286 124.369 213.884 124.773 214.606 124.847C215.329 124.921 216.141 124.686 217.041 124.142C218.646 123.173 220.397 121.476 222.295 119.052L222.392 121.707ZM212.117 118.451L219.566 113.95L219.551 113.529C219.499 112.103 219.159 111.149 218.531 110.666C217.902 110.184 217.089 110.245 216.091 110.848C215.083 111.457 214.225 112.417 213.517 113.728C212.817 115.023 212.35 116.598 212.117 118.451Z" fill="white"/>
</svg>
